<svg version="1.1" id="Layer_1" xmlns="http://www.w3.org/2000/svg" xmlns:xlink="http://www.w3.org/1999/xlink" x="0px" y="0px"
	 width="100%" viewBox="0 0 1024 1024" enable-background="new 0 0 1024 1024" xml:space="preserve">
<path fill="#E7E7E7" opacity="1.000000" stroke="none" 
	d="
M598.000000,1025.000000 
	C398.666656,1025.000000 199.833328,1025.000000 1.000000,1025.000000 
	C1.000000,683.666687 1.000000,342.333344 1.000000,1.000000 
	C342.333344,1.000000 683.666687,1.000000 1025.000000,1.000000 
	C1025.000000,342.333344 1025.000000,683.666687 1025.000000,1025.000000 
	C882.833313,1025.000000 740.666687,1025.000000 598.000000,1025.000000 
M656.064270,178.491821 
	C643.751160,173.959641 631.569946,169.020889 619.098450,164.977173 
	C590.226990,155.616013 560.456970,150.554703 530.211365,149.168625 
	C502.458893,147.896790 474.816040,149.736282 447.404602,154.925858 
	C418.853821,160.331146 391.204102,168.509613 364.835449,180.674698 
	C334.662720,194.594803 306.522888,211.776840 280.965149,233.224396 
	C262.949646,248.342636 246.493317,264.870514 231.530991,282.957855 
	C212.793427,305.608948 196.659988,330.014343 184.378815,356.693604 
	C177.169907,372.354034 171.210754,388.652893 165.630020,404.985962 
	C155.481445,434.687622 150.678268,465.529480 149.178452,496.763916 
	C147.974564,521.835876 149.724655,546.838806 153.844528,571.695618 
	C160.987503,614.791992 175.234802,655.258728 197.009949,693.125183 
	C220.139404,733.346802 249.569504,768.239014 285.861938,797.100342 
	C313.448975,819.038696 343.606476,836.818787 376.329254,850.180237 
	C419.287262,867.720947 464.018341,876.216248 510.299713,876.929260 
	C516.923218,877.031372 523.583862,876.606934 530.183899,875.974060 
	C546.005432,874.456848 561.919861,873.397583 577.582825,870.842163 
	C610.596191,865.455750 642.010071,854.780701 672.025452,840.003601 
	C697.030762,827.693176 720.605408,813.102966 742.021606,795.237549 
	C752.345398,786.625366 762.821289,778.001160 771.938843,768.184753 
	C784.340454,754.832581 795.857788,740.608826 807.123840,726.263733 
	C824.604370,704.005432 837.736694,679.104492 848.695190,653.140869 
	C859.314392,627.981445 867.736328,602.026550 871.146667,574.799622 
	C873.573975,555.420776 875.700256,535.959290 876.749756,516.469482 
	C877.379272,504.779083 876.270325,492.893250 874.886963,481.220398 
	C872.881775,464.301147 870.743469,447.320160 867.201477,430.676300 
	C859.278625,393.446960 844.505737,358.824402 825.064575,326.148956 
	C809.336792,299.714569 790.249084,275.833679 768.440918,254.309692 
	C756.074280,242.104141 742.478516,231.020279 728.675781,220.421707 
	C706.572266,203.449326 682.403809,189.786179 656.064270,178.491821 
M982.775879,974.128601 
	C986.081421,972.517151 989.387024,970.905701 993.674194,968.815674 
	C981.031433,964.538452 973.256348,956.712402 968.759216,945.070557 
	C964.925049,957.308228 956.617310,964.570251 943.967590,969.028625 
	C956.876709,973.490601 964.780273,981.182007 968.314758,991.894897 
	C973.015808,985.991089 977.586304,980.251160 982.775879,974.128601 
z"/>
<path fill="#FDFEFE" opacity="1.000000" stroke="none" 
	d="
M656.414795,178.640366 
	C682.403809,189.786179 706.572266,203.449326 728.675781,220.421707 
	C742.478516,231.020279 756.074280,242.104141 768.440918,254.309692 
	C790.249084,275.833679 809.336792,299.714569 825.064575,326.148956 
	C844.505737,358.824402 859.278625,393.446960 867.201477,430.676300 
	C870.743469,447.320160 872.881775,464.301147 874.886963,481.220398 
	C876.270325,492.893250 877.379272,504.779083 876.749756,516.469482 
	C875.700256,535.959290 873.573975,555.420776 871.146667,574.799622 
	C867.736328,602.026550 859.314392,627.981445 848.695190,653.140869 
	C837.736694,679.104492 824.604370,704.005432 807.123840,726.263733 
	C795.857788,740.608826 784.340454,754.832581 771.938843,768.184753 
	C762.821289,778.001160 752.345398,786.625366 742.021606,795.237549 
	C720.605408,813.102966 697.030762,827.693176 672.025452,840.003601 
	C642.010071,854.780701 610.596191,865.455750 577.582825,870.842163 
	C561.919861,873.397583 546.005432,874.456848 530.183899,875.974060 
	C523.583862,876.606934 516.923218,877.031372 510.299713,876.929260 
	C464.018341,876.216248 419.287262,867.720947 376.329254,850.180237 
	C343.606476,836.818787 313.448975,819.038696 285.861938,797.100342 
	C249.569504,768.239014 220.139404,733.346802 197.009949,693.125183 
	C175.234802,655.258728 160.987503,614.791992 153.844528,571.695618 
	C149.724655,546.838806 147.974564,521.835876 149.178452,496.763916 
	C150.678268,465.529480 155.481445,434.687622 165.630020,404.985962 
	C171.210754,388.652893 177.169907,372.354034 184.378815,356.693604 
	C196.659988,330.014343 212.793427,305.608948 231.530991,282.957855 
	C246.493317,264.870514 262.949646,248.342636 280.965149,233.224396 
	C306.522888,211.776840 334.662720,194.594803 364.835449,180.674698 
	C391.204102,168.509613 418.853821,160.331146 447.404602,154.925858 
	C474.816040,149.736282 502.458893,147.896790 530.211365,149.168625 
	C560.456970,150.554703 590.226990,155.616013 619.098450,164.977173 
	C631.569946,169.020889 643.751160,173.959641 656.414795,178.640366 
M205.494736,330.996490 
	C196.765228,349.103851 187.254013,366.882690 179.476898,385.390259 
	C165.399261,418.891357 158.300507,454.268585 156.271561,490.394257 
	C154.838654,515.907471 155.812286,541.491272 159.797806,566.943787 
	C165.241196,601.706726 175.439087,634.917175 190.417679,666.634338 
	C205.207703,697.952087 224.491577,726.472168 247.789124,752.023071 
	C267.197754,773.308838 288.739319,792.368225 312.759338,808.509766 
	C336.474365,824.446472 361.619598,837.516479 388.307007,847.708862 
	C423.528961,861.160706 460.114594,867.992737 497.623474,869.835388 
	C510.372955,870.461731 523.247314,869.860657 535.993591,868.889282 
	C550.344910,867.795593 564.729370,866.303589 578.901550,863.844543 
	C627.147278,855.473267 671.288940,836.598328 711.757202,809.355286 
	C735.784119,793.180359 757.596924,774.289429 777.099365,752.667908 
	C790.503601,737.807373 802.813904,722.181396 813.607544,705.433716 
	C836.244690,670.309448 852.191650,632.263428 861.327820,591.450623 
	C867.144836,565.465332 870.546692,539.180298 869.984558,512.488037 
	C869.816711,504.521423 869.873413,496.497559 868.915466,488.610657 
	C866.680603,470.211212 864.895874,451.669006 861.107971,433.565613 
	C854.328430,401.164520 842.415527,370.519409 826.320435,341.494995 
	C811.485596,314.743286 793.679138,290.193695 772.504395,268.186218 
	C762.835876,258.137543 752.388672,248.807999 741.963989,239.523560 
	C722.113770,221.844513 699.811523,207.658615 676.388855,195.293762 
	C656.343384,184.711792 635.308716,176.420547 613.541260,169.977936 
	C587.655823,162.316513 561.213257,157.549530 534.325134,156.226288 
	C517.586548,155.402542 500.743408,156.575912 483.950989,157.002747 
	C465.107544,157.481705 446.768311,161.392670 428.528839,165.709091 
	C398.257355,172.872894 369.650848,184.309204 342.349121,199.233032 
	C317.277893,212.937576 294.158813,229.385849 273.116547,248.578751 
	C246.815857,272.567902 224.341873,299.865448 205.494736,330.996490 
z"/>
<path fill="#F2F3F5" opacity="1.000000" stroke="none" 
	d="
M982.466309,974.319946 
	C977.586304,980.251160 973.015808,985.991089 968.314758,991.894897 
	C964.780273,981.182007 956.876709,973.490601 943.967590,969.028625 
	C956.617310,964.570251 964.925049,957.308228 968.759216,945.070557 
	C973.256348,956.712402 981.031433,964.538452 993.674194,968.815674 
	C989.387024,970.905701 986.081421,972.517151 982.466309,974.319946 
z"/>
<path fill="#E7E7E7" opacity="1.000000" stroke="none" 
	d="
M205.667938,330.674164 
	C224.341873,299.865448 246.815857,272.567902 273.116547,248.578751 
	C294.158813,229.385849 317.277893,212.937576 342.349121,199.233032 
	C369.650848,184.309204 398.257355,172.872894 428.528839,165.709091 
	C446.768311,161.392670 465.107544,157.481705 483.950989,157.002747 
	C500.743408,156.575912 517.586548,155.402542 534.325134,156.226288 
	C561.213257,157.549530 587.655823,162.316513 613.541260,169.977936 
	C635.308716,176.420547 656.343384,184.711792 676.388855,195.293762 
	C699.811523,207.658615 722.113770,221.844513 741.963989,239.523560 
	C752.388672,248.807999 762.835876,258.137543 772.504395,268.186218 
	C793.679138,290.193695 811.485596,314.743286 826.320435,341.494995 
	C842.415527,370.519409 854.328430,401.164520 861.107971,433.565613 
	C864.895874,451.669006 866.680603,470.211212 868.915466,488.610657 
	C869.873413,496.497559 869.816711,504.521423 869.984558,512.488037 
	C870.546692,539.180298 867.144836,565.465332 861.327820,591.450623 
	C852.191650,632.263428 836.244690,670.309448 813.607544,705.433716 
	C802.813904,722.181396 790.503601,737.807373 777.099365,752.667908 
	C757.596924,774.289429 735.784119,793.180359 711.757202,809.355286 
	C671.288940,836.598328 627.147278,855.473267 578.901550,863.844543 
	C564.729370,866.303589 550.344910,867.795593 535.993591,868.889282 
	C523.247314,869.860657 510.372955,870.461731 497.623474,869.835388 
	C460.114594,867.992737 423.528961,861.160706 388.307007,847.708862 
	C361.619598,837.516479 336.474365,824.446472 312.759338,808.509766 
	C288.739319,792.368225 267.197754,773.308838 247.789124,752.023071 
	C224.491577,726.472168 205.207703,697.952087 190.417679,666.634338 
	C175.439087,634.917175 165.241196,601.706726 159.797806,566.943787 
	C155.812286,541.491272 154.838654,515.907471 156.271561,490.394257 
	C158.300507,454.268585 165.399261,418.891357 179.476898,385.390259 
	C187.254013,366.882690 196.765228,349.103851 205.667938,330.674164 
M272.062714,741.665894 
	C273.181763,743.082336 274.120331,744.701660 275.448273,745.883362 
	C286.611420,755.816956 297.476898,766.131470 309.130829,775.458008 
	C339.170074,799.497925 372.681061,817.399170 409.302002,829.121765 
	C448.009552,841.512329 487.639191,848.146545 528.436768,844.935791 
	C544.280396,843.688843 560.251831,842.587158 575.820862,839.615845 
	C616.887085,831.778442 655.336426,816.800598 690.483032,793.946533 
	C718.463501,775.752258 744.126038,754.875854 765.625305,729.045044 
	C782.284912,709.028931 797.153931,687.910522 809.101685,664.761108 
	C819.206238,645.183105 826.969788,624.722839 833.072876,603.544250 
	C840.839050,576.594116 844.722839,549.071411 845.896301,521.166626 
	C846.961487,495.839355 843.745056,470.783173 838.883057,445.993256 
	C831.148682,406.558289 816.280029,369.900116 794.619019,336.033936 
	C779.155212,311.856720 761.498718,289.472992 739.890015,270.437012 
	C730.054626,261.772583 720.331055,252.894958 709.833862,245.085876 
	C688.008667,228.849747 664.475647,215.519211 639.282166,205.027115 
	C602.353638,189.647827 563.841614,181.820694 524.054016,180.106827 
	C499.259338,179.038803 474.633118,181.331146 450.244873,186.019608 
	C412.972931,193.184875 377.853607,206.259903 345.253998,225.596954 
	C312.285950,245.152557 283.167786,269.444458 258.470612,298.939270 
	C244.007416,316.212067 231.234055,334.625336 220.420776,354.337189 
	C205.457993,381.613281 194.588638,410.488464 187.999329,440.940033 
	C183.144943,463.373810 179.782486,486.028595 180.141525,508.998383 
	C180.382263,524.399780 181.666504,539.807129 183.029816,555.163330 
	C184.902267,576.254578 189.926865,596.769043 196.573532,616.793762 
	C207.174332,648.731323 222.052872,678.634949 242.027176,705.790649 
	C249.474243,715.915100 257.951752,725.281677 266.040588,735.762634 
	C265.806763,737.307800 265.572937,738.853027 265.314636,740.559998 
	C267.778564,740.713135 269.884644,740.844055 272.062714,741.665894 
z"/>
<path fill="#FDFEFE" opacity="1.000000" stroke="none" 
	d="
M265.959412,734.993774 
	C257.951752,725.281677 249.474243,715.915100 242.027176,705.790649 
	C222.052872,678.634949 207.174332,648.731323 196.573532,616.793762 
	C189.926865,596.769043 184.902267,576.254578 183.029816,555.163330 
	C181.666504,539.807129 180.382263,524.399780 180.141525,508.998383 
	C179.782486,486.028595 183.144943,463.373810 187.999329,440.940033 
	C194.588638,410.488464 205.457993,381.613281 220.420776,354.337189 
	C231.234055,334.625336 244.007416,316.212067 258.470612,298.939270 
	C283.167786,269.444458 312.285950,245.152557 345.253998,225.596954 
	C377.853607,206.259903 412.972931,193.184875 450.244873,186.019608 
	C474.633118,181.331146 499.259338,179.038803 524.054016,180.106827 
	C563.841614,181.820694 602.353638,189.647827 639.282166,205.027115 
	C664.475647,215.519211 688.008667,228.849747 709.833862,245.085876 
	C720.331055,252.894958 730.054626,261.772583 739.890015,270.437012 
	C761.498718,289.472992 779.155212,311.856720 794.619019,336.033936 
	C816.280029,369.900116 831.148682,406.558289 838.883057,445.993256 
	C843.745056,470.783173 846.961487,495.839355 845.896301,521.166626 
	C844.722839,549.071411 840.839050,576.594116 833.072876,603.544250 
	C826.969788,624.722839 819.206238,645.183105 809.101685,664.761108 
	C797.153931,687.910522 782.284912,709.028931 765.625305,729.045044 
	C744.126038,754.875854 718.463501,775.752258 690.483032,793.946533 
	C655.336426,816.800598 616.887085,831.778442 575.820862,839.615845 
	C560.251831,842.587158 544.280396,843.688843 528.436768,844.935791 
	C487.639191,848.146545 448.009552,841.512329 409.302002,829.121765 
	C372.681061,817.399170 339.170074,799.497925 309.130829,775.458008 
	C297.476898,766.131470 286.611420,755.816956 275.448273,745.883362 
	C274.120331,744.701660 273.181763,743.082336 272.489563,741.235229 
	C284.236023,740.805420 295.576080,741.216431 306.867462,740.652405 
	C313.582275,740.317078 320.466675,739.188477 326.828583,737.073975 
	C334.183960,734.629272 338.161530,728.512451 338.803375,720.720947 
	C339.413269,713.317383 336.834534,707.319946 329.966400,703.692993 
	C329.419067,703.403931 328.722321,703.397827 327.582733,703.147949 
	C339.082336,696.454712 343.376007,688.885803 341.667633,680.117065 
	C340.156799,672.362244 334.167969,666.908142 323.685547,666.360840 
	C309.270325,665.608154 294.786377,666.172424 280.080505,666.172424 
	C279.381683,669.413391 278.654144,672.638123 277.993500,675.876404 
	C273.973633,695.580444 269.969055,715.287659 265.959412,734.993774 
M488.156250,499.009613 
	C486.437439,499.076019 484.718597,499.142426 482.208405,499.051361 
	C481.139343,499.120514 480.070251,499.189667 478.139404,499.091827 
	C473.840637,499.106659 476.116272,496.059540 476.279663,494.510498 
	C477.893524,479.210205 468.561493,465.484100 453.887146,461.860840 
	C439.178528,458.229095 424.194733,466.340973 418.128387,481.369415 
	C417.698792,486.435913 417.269165,491.502411 416.446838,496.507996 
	C416.446838,496.507996 416.101166,496.704071 415.458435,496.333984 
	C413.974426,496.257629 412.490387,496.181274 410.291565,495.835266 
	C408.532806,495.627625 406.774048,495.420013 404.261475,494.948120 
	C396.341034,493.184357 388.209351,492.036530 380.581024,489.420837 
	C376.155304,487.903320 372.414581,484.176361 368.668274,481.077728 
	C367.965698,480.496582 368.076813,477.593536 368.865845,476.764679 
	C373.930878,471.443481 375.580688,464.761261 377.364288,457.992828 
	C377.786804,456.389496 379.742645,454.511810 381.371521,454.024261 
	C387.838013,452.088593 394.454407,450.653625 401.869507,449.151794 
	C409.585846,447.934326 417.274811,446.488312 425.025818,445.560608 
	C433.589142,444.535614 442.398224,442.521362 450.756714,443.600098 
	C461.160217,444.942749 471.208679,449.021881 481.421082,451.881470 
	C482.481110,452.178284 483.620667,452.397369 484.710510,452.351044 
	C504.485260,451.510651 524.259521,450.655518 544.030334,449.728210 
	C550.055603,449.445557 556.070312,448.937195 562.060913,448.534149 
	C561.491272,442.780365 557.286438,443.954803 554.379883,443.694733 
	C552.485901,440.786896 557.317688,436.190033 550.796936,434.686432 
	C550.243164,445.608856 542.619812,444.650208 535.041199,443.068054 
	C535.041199,438.109680 535.041199,433.151306 535.041199,427.806396 
	C538.521667,427.547241 541.682983,427.311859 545.172546,427.052002 
	C543.636963,424.677399 542.421204,422.797455 541.059143,420.239410 
	C541.382874,418.526367 541.184021,416.392090 542.148560,415.195526 
	C543.737427,413.224396 546.078918,411.859924 548.768799,410.067841 
	C550.511780,408.982361 552.254700,407.896912 554.700867,406.912628 
	C556.413269,408.116516 558.125671,409.320404 560.157410,411.067444 
	C565.072449,415.781189 569.842590,420.662537 574.985962,425.112305 
	C576.650330,426.552216 579.288574,427.559906 581.490845,427.577515 
	C604.085632,427.758087 626.682373,427.694183 649.356995,428.558228 
	C648.930908,430.808380 648.504822,433.058563 648.006226,435.691345 
	C653.343628,436.560486 658.487976,437.398193 665.072083,438.470337 
	C667.320435,420.412903 669.525513,402.702820 671.953064,384.163025 
	C671.987671,382.450562 672.022278,380.738098 672.348389,378.262543 
	C672.514282,373.508545 672.680115,368.754517 673.046082,363.081940 
	C673.091553,360.932373 673.243164,358.778961 673.165833,356.633850 
	C672.496277,338.075714 671.785461,319.519135 671.229553,300.058289 
	C670.893677,296.414032 670.090088,292.739014 670.326965,289.132385 
	C670.723572,283.095703 667.541138,280.513611 662.549805,278.102295 
	C607.095825,251.313065 548.713562,239.580292 487.285400,244.302704 
	C472.776337,245.418106 458.428680,248.632751 443.178070,250.838196 
	C426.783508,255.661438 410.388916,260.484650 393.290924,265.390289 
	C384.536835,269.300659 375.782745,273.211029 366.324432,277.199066 
	C365.291687,277.734283 364.305023,278.401245 363.218140,278.781738 
	C358.662537,280.376343 356.587921,283.229889 356.457184,288.348206 
	C356.253784,296.308563 354.684448,304.235870 354.512024,312.194885 
	C354.101898,331.125641 354.170990,350.066711 353.889191,369.914459 
	C354.967560,392.355621 357.379456,414.624084 362.139008,436.420654 
	C367.901855,436.420654 373.274139,436.420654 378.771912,436.420654 
	C378.188385,433.214874 377.689087,430.471588 378.102509,427.699982 
	C404.305176,427.732239 430.508026,427.808441 456.710114,427.701447 
	C458.523743,427.694061 460.517700,426.595673 462.097290,425.519440 
	C464.273041,424.037018 466.133698,422.092133 469.002380,420.279907 
	C474.395874,419.386047 479.185455,420.324371 483.267975,424.340607 
	C485.107025,426.149811 487.461609,427.434906 490.431244,429.567505 
	C490.431244,434.217346 490.431244,440.031982 489.576477,446.031128 
	C488.362274,445.028381 486.657318,444.266479 486.025024,442.978119 
	C484.058105,438.970306 482.842438,434.570740 480.678284,430.689514 
	C478.704376,427.149567 474.728851,425.575531 471.195709,427.178223 
	C468.837189,428.248077 467.278625,431.490173 465.843842,434.032104 
	C465.004608,435.518860 465.112244,437.540100 464.709473,439.793060 
	C455.894653,436.326111 447.255280,436.544952 438.164001,437.993134 
	C424.559387,440.160187 410.730011,440.916260 396.071075,442.122742 
	C371.450897,442.974945 346.830688,443.827179 322.210510,444.679413 
	C322.217987,445.166199 322.225433,445.653015 322.232880,446.139832 
	C340.904449,446.728119 359.576019,447.316406 378.247589,447.904694 
	C373.323090,448.994385 371.236206,452.036621 371.295319,456.736206 
	C371.343781,460.589050 369.253143,461.197052 365.868805,461.243195 
	C353.045288,461.417969 340.223511,461.830048 327.405609,462.281281 
	C313.275909,462.778687 299.151215,463.416748 284.353668,463.765045 
	C283.057556,463.912262 281.761444,464.059479 280.465332,464.206696 
	C280.499115,464.401581 280.532898,464.596497 280.566681,464.791382 
	C282.042450,464.791382 283.518188,464.791382 285.900208,464.986145 
	C312.912018,465.849579 339.923828,466.712982 367.086792,467.581238 
	C364.468781,472.324799 362.295013,476.263458 359.928009,480.552246 
	C334.339447,481.331940 308.126923,482.130676 281.914368,482.929382 
	C308.082886,484.883881 334.222504,485.949768 360.368835,486.812714 
	C364.063568,486.934692 366.773315,487.949005 369.653961,490.419922 
	C372.572083,492.922913 376.459686,494.509491 380.161163,495.827850 
	C384.211334,497.270416 388.542969,497.915161 392.718018,499.034149 
	C392.966766,499.100800 392.914581,500.290314 392.075439,500.804413 
	C368.827209,501.511475 345.578979,502.218506 322.330750,502.925537 
	C342.454071,504.729126 362.555115,505.379272 382.656403,506.022705 
	C391.772125,506.314514 400.888275,506.592896 410.921997,507.017487 
	C418.348541,506.974304 426.295349,505.569489 429.916748,515.313171 
	C429.376953,515.796204 428.156952,516.887939 426.284393,518.166931 
	C423.300720,520.389954 420.317017,522.612915 416.837097,525.205627 
	C415.464386,522.661560 414.325287,520.550354 413.844757,518.177429 
	C415.827881,516.627319 417.811005,515.077209 420.483490,512.988220 
	C416.311249,512.988220 413.120697,512.988220 409.033752,512.747559 
	C402.979706,512.747559 396.925659,512.747559 390.851410,512.747559 
	C390.875214,513.192444 390.792999,513.561035 390.925323,513.820007 
	C391.755798,515.445007 392.566406,517.086182 393.506378,518.648193 
	C421.692108,565.485352 461.696625,598.911804 510.888367,621.830505 
	C512.360535,622.516357 514.854004,622.268127 516.340088,621.468323 
	C528.916626,614.699768 541.399719,607.754761 553.831848,600.723145 
	C556.074585,599.454651 557.955139,597.545959 560.697388,596.049561 
	C571.841248,586.714478 582.985168,577.379456 594.750488,567.813843 
	C597.816223,564.468567 600.882019,561.123230 604.521484,557.474060 
	C613.223511,545.773682 621.860657,534.023804 630.711670,522.437195 
	C631.789612,521.026062 633.941956,519.884888 635.725830,519.664062 
	C641.757874,518.917297 647.490662,517.666199 652.834534,513.217590 
	C654.046448,512.081055 655.666382,511.158661 656.395691,509.768829 
	C658.817566,505.153320 662.949341,503.971924 667.602478,502.754761 
	C680.893982,499.278076 691.294495,491.614410 698.181946,479.581482 
	C703.020630,471.127930 701.986877,463.582275 694.822510,457.068451 
	C692.043823,454.542053 688.746704,452.172119 685.258789,450.924194 
	C677.616272,448.189850 669.803955,445.743286 661.877869,444.023071 
	C637.363525,438.702637 612.536804,439.990387 587.723145,441.012024 
	C585.278870,441.112640 582.217346,439.924377 580.361633,438.290314 
	C571.387329,430.388000 562.727417,422.128601 553.955139,413.994995 
	C551.436279,415.672119 549.270813,417.113922 546.901855,418.691193 
	C553.842529,427.470306 560.657593,435.847504 567.161194,444.459808 
	C569.199890,447.159576 571.253784,447.956329 574.617798,447.888000 
	C596.580261,447.441803 618.557800,446.818665 640.512207,447.229401 
	C653.957825,447.480957 667.249512,450.042114 680.018433,455.169708 
	C679.145386,465.315796 682.794250,472.879974 692.235046,477.020142 
	C685.834595,487.638000 676.824524,493.871185 665.407532,497.022675 
	C664.908875,476.288910 657.134033,464.709503 641.283691,461.564362 
	C637.862976,461.527374 634.442200,461.490387 630.484741,461.339050 
	C629.987061,461.549896 629.489380,461.760742 628.227966,461.936646 
	C621.722839,463.575195 616.375000,467.032867 612.195496,472.260956 
	C606.002930,480.007202 604.828552,489.027985 606.223694,499.005188 
	C601.037109,499.005188 596.422424,498.996613 591.807678,499.006653 
	C568.872742,499.056549 545.937866,499.111328 522.077454,499.000031 
	C514.384949,499.062195 506.692444,499.124359 498.179382,499.009735 
	C496.786316,499.069153 495.393250,499.128540 493.177582,499.022064 
	C491.785461,499.076691 490.393372,499.131287 488.156250,499.009613 
M375.012482,688.093262 
	C374.830627,687.901428 374.648743,687.709534 374.327026,686.726318 
	C374.415894,685.621033 374.504761,684.515747 374.601532,683.312012 
	C368.713470,683.312012 363.104675,683.312012 357.303375,683.312012 
	C353.544464,702.425659 349.827728,721.324829 346.044952,740.559814 
	C352.304932,740.559814 358.195160,740.559814 363.892578,740.559814 
	C364.187683,740.185364 364.352203,740.069336 364.382080,739.925354 
	C366.005463,732.108948 367.573639,724.280701 369.240387,716.473572 
	C372.283356,702.220154 377.058563,698.437622 391.573334,698.626770 
	C391.856323,698.630432 392.143219,698.334717 392.593384,698.088379 
	C393.640991,693.073547 394.711395,687.949341 395.852844,682.485352 
	C387.763306,681.625427 381.262817,683.907166 375.012482,688.093262 
M709.153992,698.769836 
	C708.561890,700.143677 707.880493,701.486511 707.391296,702.896057 
	C702.071472,718.225769 707.236084,733.212769 720.108948,738.732971 
	C729.830078,742.901611 739.900574,743.227966 749.747559,739.082153 
	C753.140625,737.653625 756.104553,735.205872 759.530090,733.057129 
	C756.111633,729.107422 753.332642,725.896484 750.612488,722.753540 
	C737.170532,730.946228 724.336365,728.318787 723.416687,717.140320 
	C725.072876,717.140320 726.705872,717.138611 728.338806,717.140503 
	C739.498718,717.153564 750.659729,717.245483 761.817078,717.082764 
	C763.224670,717.062256 765.477356,716.017822 765.876831,714.917236 
	C770.129883,703.198914 763.186646,688.536560 751.483582,683.989136 
	C736.307800,678.092407 718.111572,684.231506 709.153992,698.769836 
M667.255737,706.077759 
	C665.840698,699.405701 664.511047,692.713257 662.927917,686.081360 
	C662.659241,684.955750 661.341736,683.282471 660.439941,683.237244 
	C655.080811,682.968628 649.701294,683.104492 643.764404,683.104492 
	C647.683533,699.745850 651.390991,715.430908 655.067871,731.123047 
	C657.329163,740.773621 657.308228,740.778381 667.453308,740.831116 
	C668.285950,740.835449 669.145447,740.710510 669.946838,740.872070 
	C674.222839,741.733887 676.433289,739.592285 678.530518,736.063965 
	C685.923157,723.626465 693.654236,711.390076 701.260620,699.079651 
	C704.452209,693.914124 707.652893,688.754150 711.150391,683.105591 
	C708.177612,683.105591 705.962830,683.454346 703.898804,683.044556 
	C695.448547,681.366516 690.656250,684.975708 686.854736,692.494568 
	C682.171997,701.756226 676.157471,710.344543 670.162415,720.131653 
	C669.104919,714.974731 668.277283,710.939026 667.255737,706.077759 
M479.049835,717.391113 
	C477.523041,724.977173 475.996216,732.563171 474.389374,740.546875 
	C487.496613,740.546875 499.935913,740.600220 512.374207,740.513794 
	C516.026978,740.488464 519.730713,740.381226 523.318237,739.768311 
	C534.697632,737.823853 544.408447,732.914856 551.389343,723.323364 
	C565.018005,704.598022 560.970581,670.034546 528.375977,666.519897 
	C515.441589,665.125244 502.231201,666.290955 488.956238,666.290955 
	C485.709381,682.982666 482.444611,699.766479 479.049835,717.391113 
M451.233459,723.942688 
	C452.524170,715.467224 453.814880,706.991699 455.168152,698.105347 
	C460.410645,698.105347 464.960999,698.105347 469.539307,698.105347 
	C470.378082,693.539734 471.122314,689.488708 471.957306,684.943481 
	C467.511444,684.943481 463.411102,684.943481 458.916443,684.943481 
	C459.780609,679.779053 460.562561,675.105957 461.379791,670.221924 
	C455.192596,670.221924 449.427612,670.221924 443.435028,670.221924 
	C442.301483,675.164734 441.200592,679.965271 440.032623,685.058228 
	C437.013062,685.058228 434.227966,685.058228 431.248474,685.058228 
	C430.392242,689.547058 429.597992,693.710815 428.761719,698.095032 
	C431.738739,698.252625 434.168457,698.381287 436.972198,698.529663 
	C436.765320,700.088013 436.648041,701.365356 436.420074,702.622620 
	C435.175110,709.489563 433.663696,716.318604 432.714081,723.225403 
	C431.921539,728.989502 433.435577,734.384521 438.529846,737.725891 
	C446.312836,742.830811 454.801483,743.045898 463.372467,739.869446 
	C464.408783,739.485291 465.759399,737.699646 465.614868,736.774414 
	C465.040649,733.098816 463.931030,729.506897 463.014496,725.862976 
	C458.606842,727.105469 454.707886,729.017578 451.233459,723.942688 
M579.611633,739.202515 
	C581.062134,731.871277 582.586975,724.553711 583.947388,717.205811 
	C586.615173,702.796387 592.051331,698.302185 607.095581,698.626953 
	C608.199524,693.428772 609.320923,688.148315 610.510559,682.546570 
	C602.313110,681.270142 595.898621,684.360352 589.367432,689.132019 
	C589.367432,686.643616 589.367432,684.940063 589.367432,683.281250 
	C583.408752,683.281250 577.818420,683.281250 571.983459,683.281250 
	C568.266357,702.381287 564.593445,721.254028 560.731934,741.096191 
	C567.284546,740.699219 573.271851,740.336487 579.611633,739.202515 
M628.091309,733.747498 
	C631.365906,717.132690 634.640442,700.517883 638.035339,683.292480 
	C632.749329,683.292480 627.955994,683.431213 623.176086,683.237854 
	C620.521362,683.130493 619.427246,683.905640 618.920959,686.666626 
	C616.731018,698.610107 614.234497,710.497070 611.907837,722.416016 
	C610.743958,728.377991 609.705750,734.364502 608.565735,740.585388 
	C615.006897,740.585388 620.777588,740.585388 626.657593,740.585388 
	C627.123352,738.465515 627.549988,736.523804 628.091309,733.747498 
M401.566193,740.840088 
	C405.028320,740.840088 408.490448,740.840088 412.269470,740.840088 
	C415.921478,721.607422 419.509399,702.712341 423.156403,683.505981 
	C416.896759,683.505981 411.125946,683.505981 404.907715,683.505981 
	C401.205109,702.489990 397.518829,721.390381 393.726074,740.836609 
	C396.347015,740.836609 398.479523,740.836609 401.566193,740.840088 
M621.767456,671.332214 
	C625.941956,676.998779 634.347473,678.138672 639.657776,673.758301 
	C644.978882,669.369019 644.683044,661.082336 638.912781,658.266846 
	C634.288696,656.010742 629.485413,656.247864 625.222473,659.246704 
	C621.294983,662.009521 620.085205,665.973877 621.767456,671.332214 
M427.358795,670.647156 
	C429.869904,664.306274 428.273163,659.506958 422.955902,657.413025 
	C416.725311,654.959595 409.219666,657.781372 406.804535,663.485291 
	C404.747894,668.342529 406.484802,672.900940 411.243103,675.134338 
	C416.591797,677.644836 422.137756,676.291870 427.358795,670.647156 
z"/>
<path fill="#153664" opacity="1.000000" stroke="none" 
	d="
M266.000000,735.378174 
	C269.969055,715.287659 273.973633,695.580444 277.993500,675.876404 
	C278.654144,672.638123 279.381683,669.413391 280.080505,666.172424 
	C294.786377,666.172424 309.270325,665.608154 323.685547,666.360840 
	C334.167969,666.908142 340.156799,672.362244 341.667633,680.117065 
	C343.376007,688.885803 339.082336,696.454712 327.582733,703.147949 
	C328.722321,703.397827 329.419067,703.403931 329.966400,703.692993 
	C336.834534,707.319946 339.413269,713.317383 338.803375,720.720947 
	C338.161530,728.512451 334.183960,734.629272 326.828583,737.073975 
	C320.466675,739.188477 313.582275,740.317078 306.867462,740.652405 
	C295.576080,741.216431 284.236023,740.805420 272.453613,740.889771 
	C269.884644,740.844055 267.778564,740.713135 265.314636,740.559998 
	C265.572937,738.853027 265.806763,737.307800 266.000000,735.378174 
M291.906952,726.457703 
	C294.072815,726.493164 296.242737,726.629700 298.403748,726.543640 
	C303.384796,726.345459 308.436096,726.479126 313.318756,725.651489 
	C318.085052,724.843567 320.574646,720.996704 320.155975,716.612671 
	C319.698395,711.821350 316.284454,710.079041 312.199249,709.922180 
	C304.932129,709.643005 297.646545,709.843689 290.162079,709.843689 
	C289.161957,715.311951 288.186493,720.645264 287.170135,726.202332 
	C288.738129,726.303650 289.878479,726.377380 291.906952,726.457703 
M294.121368,696.005920 
	C299.606384,696.028503 305.111725,696.339783 310.568054,695.955444 
	C313.426392,695.754150 316.928986,695.082092 318.807404,693.253357 
	C320.740143,691.371582 321.984314,687.740417 321.742737,685.034424 
	C321.582092,683.235474 318.395508,680.480347 316.370941,680.298767 
	C309.677338,679.698425 302.896332,680.072327 296.070526,680.072327 
	C295.119537,685.487183 294.231537,690.543457 294.121368,696.005920 
z"/>
<path fill="#17437B" opacity="1.000000" stroke="none" 
	d="
M444.006775,250.881714 
	C458.428680,248.632751 472.776337,245.418106 487.285400,244.302704 
	C548.713562,239.580292 607.095825,251.313065 662.549805,278.102295 
	C667.541138,280.513611 670.723572,283.095703 670.326965,289.132385 
	C670.090088,292.739014 670.893677,296.414032 670.892883,300.733612 
	C668.146667,303.422089 665.863342,305.618439 663.288391,307.391357 
	C661.162781,308.854889 658.692322,309.817444 656.252808,310.588684 
	C655.772644,307.510376 655.414307,304.845398 655.076050,301.723785 
	C654.880310,291.226654 654.880310,291.226654 646.864990,288.607117 
	C643.269775,287.782043 640.960449,283.275543 636.414612,286.680389 
	C618.179565,300.338318 599.696716,313.666016 581.272461,327.070435 
	C571.644287,334.075317 561.947571,340.986084 551.614014,348.419769 
	C551.614014,318.972900 551.614014,290.317017 551.614014,261.251404 
	C546.115295,260.865570 541.020386,260.508087 535.493652,260.053436 
	C520.696716,260.009216 506.331573,260.062134 491.649109,260.092926 
	C491.125153,260.118225 490.918488,260.165710 490.298950,260.149323 
	C485.032532,260.522614 480.179016,260.959717 474.795593,261.444580 
	C474.795593,267.917206 474.795593,273.962311 474.403015,280.006958 
	C469.802338,278.438812 465.561340,276.951813 461.405792,275.255524 
	C460.118134,274.729919 459.043335,273.661041 457.904510,272.796875 
	C454.529022,270.235504 451.344513,267.369293 447.755402,265.157776 
	C444.241119,262.992340 442.530273,260.318085 443.149750,256.231354 
	C443.420410,254.445877 443.720215,252.664780 444.006775,250.881714 
z"/>
<path fill="#122749" opacity="1.000000" stroke="none" 
	d="
M413.186157,518.439148 
	C414.325287,520.550354 415.464386,522.661560 416.837097,525.205627 
	C420.317017,522.612915 423.300720,520.389954 427.053467,518.081360 
	C432.458038,518.455627 436.403687,518.129089 436.313324,511.848206 
	C436.294250,510.523743 437.440125,509.182526 438.431549,507.904602 
	C446.442535,511.261475 453.356232,509.581299 460.224426,504.965790 
	C461.763916,505.522644 463.426636,505.738037 463.998291,506.642731 
	C466.598999,510.758942 470.395142,511.449158 474.822327,511.473206 
	C474.943878,534.153442 474.945770,556.372009 475.098389,578.589539 
	C475.110443,580.340881 475.634766,582.816711 476.841034,583.701233 
	C481.224030,586.915405 485.998596,589.595520 490.846466,592.730713 
	C497.365265,596.595459 503.619812,600.286133 509.996246,603.752686 
	C511.317780,604.471130 513.472412,605.089539 514.593933,604.506165 
	C520.851685,601.251038 526.909790,597.612122 533.368530,594.053711 
	C534.478577,593.606873 535.256104,593.210815 536.359741,592.735474 
	C541.401917,589.621521 546.117981,586.586853 550.979736,583.889832 
	C552.347229,585.308167 553.820740,586.210571 554.738403,587.506592 
	C556.649109,590.204956 558.265564,593.111755 560.002930,595.932861 
	C557.955139,597.545959 556.074585,599.454651 553.831848,600.723145 
	C541.399719,607.754761 528.916626,614.699768 516.340088,621.468323 
	C514.854004,622.268127 512.360535,622.516357 510.888367,621.830505 
	C461.696625,598.911804 421.692108,565.485352 393.506378,518.648193 
	C392.566406,517.086182 391.755798,515.445007 390.925323,513.820007 
	C390.792999,513.561035 390.875214,513.192444 390.851410,512.747559 
	C396.925659,512.747559 402.979706,512.747559 409.520538,513.226013 
	C411.066956,515.282715 412.126556,516.860901 413.186157,518.439148 
z"/>
<path fill="#C22B3A" opacity="1.000000" stroke="none" 
	d="
M553.997681,406.811432 
	C552.254700,407.896912 550.511780,408.982361 548.260498,409.818939 
	C544.404785,406.580109 541.716736,408.519409 539.158875,410.799377 
	C537.691467,412.107330 536.382629,413.593048 534.729736,414.773010 
	C533.993408,413.334351 532.944580,412.001709 533.164185,410.928650 
	C534.316956,405.295349 531.034546,403.981079 526.526184,402.766479 
	C523.166504,401.861298 520.162415,399.636078 517.000000,397.666046 
	C517.000793,396.889679 517.001587,396.446075 517.320801,395.962402 
	C518.331604,395.320801 519.024048,394.719177 519.716492,394.117584 
	C519.334839,393.816376 518.953125,393.515198 518.571472,393.213989 
	C518.046814,394.141846 517.522217,395.069702 516.665039,395.998291 
	C515.889160,395.998932 515.445801,395.998840 514.859619,395.680450 
	C514.477844,394.240997 514.238953,393.119904 514.076416,391.640503 
	C516.657410,388.738892 518.807434,387.231598 521.386536,391.577271 
	C522.264221,393.056274 525.113464,393.365265 527.061890,394.208862 
	C527.375671,393.695190 527.689453,393.181519 528.003296,392.667816 
	C526.484070,391.424194 524.932007,390.218262 523.453979,388.927490 
	C521.585083,387.295288 519.877686,384.959534 522.701660,383.383911 
	C526.789307,381.103302 531.395386,379.751953 535.864746,378.435822 
	C537.270081,379.593536 538.589661,380.951141 539.912048,380.953918 
	C578.561279,381.035065 617.210876,380.981140 655.915771,381.384460 
	C655.915894,383.866058 655.860596,385.912048 655.608826,388.301178 
	C653.367737,401.662384 651.323120,414.680450 649.278564,427.698517 
	C626.682373,427.694183 604.085632,427.758087 581.490845,427.577515 
	C579.288574,427.559906 576.650330,426.552216 574.985962,425.112305 
	C569.842590,420.662537 565.072449,415.781189 560.036804,410.365967 
	C559.916199,406.504395 559.916199,403.344299 559.916199,400.184204 
	C559.073547,399.985016 558.230896,399.785828 557.388245,399.586639 
	C556.258057,401.994904 555.127869,404.403168 553.997681,406.811432 
M537.805115,394.003601 
	C542.348877,394.003601 546.892578,394.003601 551.732239,394.003601 
	C551.322937,389.693115 551.642639,385.311401 547.199951,384.539276 
	C544.588501,384.085419 541.033386,385.403839 538.893494,387.143738 
	C537.394531,388.362396 537.569885,391.640442 536.119995,393.999512 
	C533.903503,393.999512 531.686951,393.999512 528.765015,393.999512 
	C529.549500,396.922852 530.061035,398.829254 530.572632,400.735657 
	C531.078796,400.882843 531.584900,401.030060 532.091003,401.177277 
	C533.728149,398.785248 535.365295,396.393250 537.805115,394.003601 
M560.813171,386.508545 
	C560.410522,386.228058 560.007812,385.947601 559.605164,385.667145 
	C559.496948,386.082550 559.388672,386.497955 559.280457,386.913361 
	C559.750305,386.963348 560.220215,387.013367 560.813171,386.508545 
z"/>
<path fill="#C22534" opacity="1.000000" stroke="none" 
	d="
M517.000000,397.998779 
	C520.162415,399.636078 523.166504,401.861298 526.526184,402.766479 
	C531.034546,403.981079 534.316956,405.295349 533.164185,410.928650 
	C532.944580,412.001709 533.993408,413.334351 534.730347,415.164764 
	C534.707214,420.348633 538.273376,420.250153 541.205444,420.917480 
	C542.421204,422.797455 543.636963,424.677399 545.172546,427.052002 
	C541.682983,427.311859 538.521667,427.547241 535.041199,427.806396 
	C535.041199,433.151306 535.041199,438.109680 534.675903,443.629181 
	C519.684143,444.742401 505.057709,445.294495 490.431244,445.846619 
	C490.431244,440.031982 490.431244,434.217346 490.431244,429.567505 
	C487.461609,427.434906 485.107025,426.149811 483.267975,424.340607 
	C479.185455,420.324371 474.395874,419.386047 468.489258,419.911560 
	C463.825348,414.554596 455.819244,417.110870 451.111084,426.079285 
	C449.156738,422.802002 446.671814,420.324036 446.218231,417.517700 
	C445.314514,411.926514 443.149048,408.592316 437.477020,407.098022 
	C428.751740,404.799408 423.527252,398.149811 418.346954,391.556244 
	C416.102722,388.699738 415.154022,385.616669 419.934418,383.829956 
	C420.524048,383.609558 420.650330,382.149445 421.453003,381.174133 
	C443.206421,381.074951 464.498230,381.089661 485.789703,381.010101 
	C487.495819,381.003754 489.199524,380.347748 491.263611,380.037170 
	C493.248474,381.149597 495.276642,381.897797 496.428589,383.343994 
	C500.972382,389.048401 507.127441,391.182465 514.000000,391.998779 
	C514.238953,393.119904 514.477844,394.240997 514.910889,395.994446 
	C515.736694,397.084076 516.368347,397.541443 517.000000,397.998779 
z"/>
<path fill="#143D70" opacity="1.000000" stroke="none" 
	d="
M443.592407,250.859955 
	C443.720215,252.664780 443.420410,254.445877 443.149750,256.231354 
	C442.530273,260.318085 444.241119,262.992340 447.755402,265.157776 
	C451.344513,267.369293 454.529022,270.235504 457.904510,272.796875 
	C459.043335,273.661041 460.118134,274.729919 461.405792,275.255524 
	C465.561340,276.951813 469.802338,278.438812 474.485870,280.468628 
	C474.961334,303.066284 474.961334,325.201843 474.961334,348.385956 
	C448.627411,329.298370 423.234192,310.892639 397.881042,292.088928 
	C398.820343,290.200439 399.410217,288.340424 400.672577,287.283722 
	C406.005768,282.819275 405.999817,280.946564 401.252563,275.620392 
	C398.474030,272.502991 396.390533,268.766113 393.994354,265.307892 
	C410.388916,260.484650 426.783508,255.661438 443.592407,250.859955 
z"/>
<path fill="#153868" opacity="1.000000" stroke="none" 
	d="
M652.199829,513.505493 
	C647.490662,517.666199 641.757874,518.917297 635.725830,519.664062 
	C633.941956,519.884888 631.789612,521.026062 630.711670,522.437195 
	C621.860657,534.023804 613.223511,545.773682 604.255188,557.260498 
	C603.971313,555.174194 604.601440,552.943970 603.805115,551.501038 
	C601.994263,548.219604 599.917236,544.841797 597.169006,542.369507 
	C590.613403,536.472107 583.873718,530.699463 576.690857,525.606262 
	C571.665894,522.043274 566.058350,518.822571 559.870728,524.790588 
	C558.314392,526.291626 554.699402,525.658325 551.933350,525.545410 
	C551.836304,518.500854 551.836304,511.916809 551.836304,505.284668 
	C546.014526,505.284668 541.026062,505.284668 535.582275,505.194275 
	C531.088623,505.018799 527.050354,504.933685 523.009277,504.442566 
	C523.005371,502.412537 523.004150,500.788452 523.002930,499.164398 
	C545.937866,499.111328 568.872742,499.056549 591.807678,499.006653 
	C596.422424,498.996613 601.037109,499.005188 606.223694,499.005188 
	C604.828552,489.027985 606.002930,480.007202 612.195496,472.260956 
	C616.375000,467.032867 621.722839,463.575195 628.758911,462.157715 
	C629.867004,462.070312 630.444275,461.761871 631.021484,461.453400 
	C634.442200,461.490387 637.862976,461.527374 641.645569,462.175842 
	C641.300964,465.663177 640.594421,468.539093 639.448730,471.389160 
	C626.856689,470.184418 617.105408,477.677338 616.100159,488.967010 
	C615.197205,499.108032 623.136108,508.417450 633.653625,509.568726 
	C639.486267,510.207153 644.263367,507.679108 648.890869,504.959106 
	C650.022522,508.078674 651.111206,510.792084 652.199829,513.505493 
M591.807922,511.676544 
	C597.674011,516.014893 603.540100,520.353271 609.759888,524.953247 
	C612.329468,520.820679 614.826233,516.805176 617.471558,512.550720 
	C614.670105,509.962494 612.281494,505.834595 609.452209,505.506470 
	C601.372192,504.569427 593.113098,505.177032 584.924377,505.177032 
	C584.829529,505.525726 584.734680,505.874420 584.639832,506.223114 
	C586.845581,507.889435 589.051270,509.555756 591.807922,511.676544 
z"/>
<path fill="#BB1F2F" opacity="1.000000" stroke="none" 
	d="
M420.991302,381.263824 
	C420.650330,382.149445 420.524048,383.609558 419.934418,383.829956 
	C415.154022,385.616669 416.102722,388.699738 418.346954,391.556244 
	C423.527252,398.149811 428.751740,404.799408 437.477020,407.098022 
	C443.149048,408.592316 445.314514,411.926514 446.218231,417.517700 
	C446.671814,420.324036 449.156738,422.802002 451.111084,426.079285 
	C455.819244,417.110870 463.825348,414.554596 468.052734,419.944275 
	C466.133698,422.092133 464.273041,424.037018 462.097290,425.519440 
	C460.517700,426.595673 458.523743,427.694061 456.710114,427.701447 
	C430.508026,427.808441 404.305176,427.732239 377.516266,427.353638 
	C374.939209,412.342621 372.948395,397.677948 371.184814,382.863342 
	C371.612732,382.223206 371.813446,381.733002 372.475891,381.163635 
	C388.955475,381.144226 404.973389,381.204041 420.991302,381.263824 
z"/>
<path fill="#173764" opacity="1.000000" stroke="none" 
	d="
M709.349976,698.453918 
	C718.111572,684.231506 736.307800,678.092407 751.483582,683.989136 
	C763.186646,688.536560 770.129883,703.198914 765.876831,714.917236 
	C765.477356,716.017822 763.224670,717.062256 761.817078,717.082764 
	C750.659729,717.245483 739.498718,717.153564 728.338806,717.140503 
	C726.705872,717.138611 725.072876,717.140320 723.416687,717.140320 
	C724.336365,728.318787 737.170532,730.946228 750.612488,722.753540 
	C753.332642,725.896484 756.111633,729.107422 759.530090,733.057129 
	C756.104553,735.205872 753.140625,737.653625 749.747559,739.082153 
	C739.900574,743.227966 729.830078,742.901611 720.108948,738.732971 
	C707.236084,733.212769 702.071472,718.225769 707.391296,702.896057 
	C707.880493,701.486511 708.561890,700.143677 709.349976,698.453918 
M727.710266,707.206360 
	C735.132568,707.206360 742.554810,707.206360 749.980164,707.206360 
	C749.757385,699.424561 746.615051,695.989990 739.911865,695.567932 
	C733.031189,695.134766 725.605469,699.903137 724.854614,705.407532 
	C724.786011,705.910522 726.099854,706.602173 727.710266,707.206360 
z"/>
<path fill="#1D4174" opacity="1.000000" stroke="none" 
	d="
M652.517212,513.361572 
	C651.111206,510.792084 650.022522,508.078674 649.042297,504.668823 
	C659.458801,491.567688 655.435425,477.426178 639.887878,471.414978 
	C640.594421,468.539093 641.300964,465.663177 642.006714,462.372162 
	C657.134033,464.709503 664.908875,476.288910 665.407532,497.022675 
	C676.824524,493.871185 685.834595,487.638000 692.235046,477.020142 
	C682.794250,472.879974 679.145386,465.315796 680.018433,455.169708 
	C667.249512,450.042114 653.957825,447.480957 640.512207,447.229401 
	C618.557800,446.818665 596.580261,447.441803 574.617798,447.888000 
	C571.253784,447.956329 569.199890,447.159576 567.161194,444.459808 
	C560.657593,435.847504 553.842529,427.470306 546.901855,418.691193 
	C549.270813,417.113922 551.436279,415.672119 553.955139,413.994995 
	C562.727417,422.128601 571.387329,430.388000 580.361633,438.290314 
	C582.217346,439.924377 585.278870,441.112640 587.723145,441.012024 
	C612.536804,439.990387 637.363525,438.702637 661.877869,444.023071 
	C669.803955,445.743286 677.616272,448.189850 685.258789,450.924194 
	C688.746704,452.172119 692.043823,454.542053 694.822510,457.068451 
	C701.986877,463.582275 703.020630,471.127930 698.181946,479.581482 
	C691.294495,491.614410 680.893982,499.278076 667.602478,502.754761 
	C662.949341,503.971924 658.817566,505.153320 656.395691,509.768829 
	C655.666382,511.158661 654.046448,512.081055 652.517212,513.361572 
M691.804810,462.913483 
	C690.022827,461.301147 688.240906,459.688812 686.157715,457.803955 
	C685.330994,465.027527 687.867737,469.499054 695.028564,472.318512 
	C693.913696,468.786652 693.085205,466.161865 691.804810,462.913483 
z"/>
<path fill="#164178" opacity="1.000000" stroke="none" 
	d="
M655.805298,387.958008 
	C655.860596,385.912048 655.915894,383.866058 655.996765,380.951843 
	C656.346008,375.317535 656.669739,370.551514 657.036987,365.144287 
	C640.569519,365.144287 624.589417,365.144287 607.314697,365.144287 
	C609.554443,363.408325 610.654602,362.497040 611.812805,361.666809 
	C625.453918,351.888641 639.045044,342.038696 652.795471,332.416565 
	C655.948242,330.210327 657.745422,328.056183 657.116150,323.919403 
	C656.470276,319.674255 656.589966,315.312622 656.374634,311.001984 
	C658.692322,309.817444 661.162781,308.854889 663.288391,307.391357 
	C665.863342,305.618439 668.146667,303.422089 670.821533,301.185486 
	C671.785461,319.519135 672.496277,338.075714 673.165833,356.633850 
	C673.243164,358.778961 673.091553,360.932373 672.563843,363.542786 
	C669.508484,365.486267 666.935303,366.968872 664.362122,368.451477 
	C665.882629,370.745819 667.349426,373.078400 668.944031,375.320038 
	C669.876099,376.630310 671.012512,377.795288 672.056946,379.025635 
	C672.022278,380.738098 671.987671,382.450562 671.491333,384.705963 
	C670.708191,385.784912 670.305603,386.289093 670.080872,386.862946 
	C669.430542,388.523285 668.862610,391.625977 668.243164,391.630646 
	C666.170654,391.646454 664.091675,390.552185 662.011475,389.894836 
	C659.945068,389.241821 657.874207,388.603027 655.805298,387.958008 
z"/>
<path fill="#173764" opacity="1.000000" stroke="none" 
	d="
M667.352722,706.490540 
	C668.277283,710.939026 669.104919,714.974731 670.162415,720.131653 
	C676.157471,710.344543 682.171997,701.756226 686.854736,692.494568 
	C690.656250,684.975708 695.448547,681.366516 703.898804,683.044556 
	C705.962830,683.454346 708.177612,683.105591 711.150391,683.105591 
	C707.652893,688.754150 704.452209,693.914124 701.260620,699.079651 
	C693.654236,711.390076 685.923157,723.626465 678.530518,736.063965 
	C676.433289,739.592285 674.222839,741.733887 669.946838,740.872070 
	C669.145447,740.710510 668.285950,740.835449 667.453308,740.831116 
	C657.308228,740.778381 657.329163,740.773621 655.067871,731.123047 
	C651.390991,715.430908 647.683533,699.745850 643.764404,683.104492 
	C649.701294,683.104492 655.080811,682.968628 660.439941,683.237244 
	C661.341736,683.282471 662.659241,684.955750 662.927917,686.081360 
	C664.511047,692.713257 665.840698,699.405701 667.352722,706.490540 
z"/>
<path fill="#1C3A64" opacity="1.000000" stroke="none" 
	d="
M479.114838,716.970703 
	C482.444611,699.766479 485.709381,682.982666 488.956238,666.290955 
	C502.231201,666.290955 515.441589,665.125244 528.375977,666.519897 
	C560.970581,670.034546 565.018005,704.598022 551.389343,723.323364 
	C544.408447,732.914856 534.697632,737.823853 523.318237,739.768311 
	C519.730713,740.381226 516.026978,740.488464 512.374207,740.513794 
	C499.935913,740.600220 487.496613,740.546875 474.389374,740.546875 
	C475.996216,732.563171 477.523041,724.977173 479.114838,716.970703 
M544.601318,721.658936 
	C550.352539,713.618164 552.156677,704.721191 549.954834,695.135010 
	C546.910400,681.880371 538.433777,673.490356 525.470459,670.234436 
	C512.198364,666.900879 500.972900,671.582214 492.646057,681.958008 
	C484.391754,692.243408 483.177551,703.930664 488.858643,716.800903 
	C500.538605,739.030396 530.213196,741.829590 544.601318,721.658936 
z"/>
<path fill="#153664" opacity="1.000000" stroke="none" 
	d="
M451.412170,724.322815 
	C454.707886,729.017578 458.606842,727.105469 463.014496,725.862976 
	C463.931030,729.506897 465.040649,733.098816 465.614868,736.774414 
	C465.759399,737.699646 464.408783,739.485291 463.372467,739.869446 
	C454.801483,743.045898 446.312836,742.830811 438.529846,737.725891 
	C433.435577,734.384521 431.921539,728.989502 432.714081,723.225403 
	C433.663696,716.318604 435.175110,709.489563 436.420074,702.622620 
	C436.648041,701.365356 436.765320,700.088013 436.972198,698.529663 
	C434.168457,698.381287 431.738739,698.252625 428.761719,698.095032 
	C429.597992,693.710815 430.392242,689.547058 431.248474,685.058228 
	C434.227966,685.058228 437.013062,685.058228 440.032623,685.058228 
	C441.200592,679.965271 442.301483,675.164734 443.435028,670.221924 
	C449.427612,670.221924 455.192596,670.221924 461.379791,670.221924 
	C460.562561,675.105957 459.780609,679.779053 458.916443,684.943481 
	C463.411102,684.943481 467.511444,684.943481 471.957306,684.943481 
	C471.122314,689.488708 470.378082,693.539734 469.539307,698.105347 
	C464.960999,698.105347 460.410645,698.105347 455.168152,698.105347 
	C453.814880,706.991699 452.524170,715.467224 451.412170,724.322815 
z"/>
<path fill="#16335B" opacity="1.000000" stroke="none" 
	d="
M354.046509,369.003632 
	C354.170990,350.066711 354.101898,331.125641 354.512024,312.194885 
	C354.684448,304.235870 356.253784,296.308563 356.457184,288.348206 
	C356.587921,283.229889 358.662537,280.376343 363.218140,278.781738 
	C364.305023,278.401245 365.291687,277.734283 366.669373,277.535583 
	C369.777740,281.957794 372.541138,286.043427 375.074402,290.427979 
	C370.004059,293.213440 372.333679,297.968079 371.250977,302.124176 
	C370.764374,308.318207 370.405090,314.071594 369.915039,320.231201 
	C368.292847,326.697876 370.405823,330.857208 375.989105,333.765411 
	C378.981628,335.324127 381.480072,337.831390 383.912872,340.108582 
	C382.625641,341.821625 381.733887,343.421692 380.608856,344.836212 
	C376.892181,349.509216 375.552124,354.267487 379.054810,359.783569 
	C379.934937,361.169556 379.715546,363.253693 379.560120,365.116638 
	C375.901276,365.473450 372.683807,365.730652 369.082947,366.000458 
	C363.815247,367.009949 358.930878,368.006775 354.046509,369.003632 
z"/>
<path fill="#203E69" opacity="1.000000" stroke="none" 
	d="
M285.024323,463.993530 
	C299.151215,463.416748 313.275909,462.778687 327.405609,462.281281 
	C340.223511,461.830048 353.045288,461.417969 365.868805,461.243195 
	C369.253143,461.197052 371.343781,460.589050 371.295319,456.736206 
	C371.236206,452.036621 373.323090,448.994385 378.247589,447.904694 
	C359.576019,447.316406 340.904449,446.728119 322.232880,446.139832 
	C322.225433,445.653015 322.217987,445.166199 322.210510,444.679413 
	C346.830688,443.827179 371.450897,442.974945 396.543640,442.539307 
	C398.349213,444.981628 399.682251,447.007385 401.015259,449.033142 
	C394.454407,450.653625 387.838013,452.088593 381.371521,454.024261 
	C379.742645,454.511810 377.786804,456.389496 377.364288,457.992828 
	C375.580688,464.761261 373.930878,471.443481 368.865845,476.764679 
	C368.076813,477.593536 367.965698,480.496582 368.668274,481.077728 
	C372.414581,484.176361 376.155304,487.903320 380.581024,489.420837 
	C388.209351,492.036530 396.341034,493.184357 404.624268,495.445740 
	C400.612396,505.865723 400.396423,506.012939 392.469604,504.273102 
	C392.645630,503.177673 392.824036,502.067505 393.002411,500.957336 
	C392.914581,500.290314 392.966766,499.100800 392.718018,499.034149 
	C388.542969,497.915161 384.211334,497.270416 380.161163,495.827850 
	C376.459686,494.509491 372.572083,492.922913 369.653961,490.419922 
	C366.773315,487.949005 364.063568,486.934692 360.368835,486.812714 
	C334.222504,485.949768 308.082886,484.883881 281.914368,482.929382 
	C308.126923,482.130676 334.339447,481.331940 359.928009,480.552246 
	C362.295013,476.263458 364.468781,472.324799 367.086792,467.581238 
	C339.923828,466.712982 312.912018,465.849579 285.453979,464.755859 
	C285.017639,464.348389 285.023163,464.171051 285.024323,463.993530 
z"/>
<path fill="#173764" opacity="1.000000" stroke="none" 
	d="
M579.435364,739.588135 
	C573.271851,740.336487 567.284546,740.699219 560.731934,741.096191 
	C564.593445,721.254028 568.266357,702.381287 571.983459,683.281250 
	C577.818420,683.281250 583.408752,683.281250 589.367432,683.281250 
	C589.367432,684.940063 589.367432,686.643616 589.367432,689.132019 
	C595.898621,684.360352 602.313110,681.270142 610.510559,682.546570 
	C609.320923,688.148315 608.199524,693.428772 607.095581,698.626953 
	C592.051331,698.302185 586.615173,702.796387 583.947388,717.205811 
	C582.586975,724.553711 581.062134,731.871277 579.435364,739.588135 
z"/>
<path fill="#173764" opacity="1.000000" stroke="none" 
	d="
M375.521423,688.701477 
	C381.262817,683.907166 387.763306,681.625427 395.852844,682.485352 
	C394.711395,687.949341 393.640991,693.073547 392.593384,698.088379 
	C392.143219,698.334717 391.856323,698.630432 391.573334,698.626770 
	C377.058563,698.437622 372.283356,702.220154 369.240387,716.473572 
	C367.573639,724.280701 366.005463,732.108948 364.382080,739.925354 
	C364.352203,740.069336 364.187683,740.185364 363.892578,740.559814 
	C358.195160,740.559814 352.304932,740.559814 346.044952,740.559814 
	C349.827728,721.324829 353.544464,702.425659 357.303375,683.312012 
	C363.104675,683.312012 368.713470,683.312012 374.601532,683.312012 
	C374.504761,684.515747 374.415894,685.621033 374.259003,687.394897 
	C374.634460,688.276123 375.077942,688.488770 375.521423,688.701477 
z"/>
<path fill="#16335B" opacity="1.000000" stroke="none" 
	d="
M552.030457,526.005859 
	C554.699402,525.658325 558.314392,526.291626 559.870728,524.790588 
	C566.058350,518.822571 571.665894,522.043274 576.690857,525.606262 
	C583.873718,530.699463 590.613403,536.472107 597.169006,542.369507 
	C599.917236,544.841797 601.994263,548.219604 603.805115,551.501038 
	C604.601440,552.943970 603.971313,555.174194 603.968323,557.412476 
	C600.882019,561.123230 597.816223,564.468567 594.067017,567.915161 
	C592.337341,567.581787 591.168762,567.320618 590.265625,566.683167 
	C585.542908,563.350098 581.128845,559.499390 576.139404,556.647644 
	C571.375610,553.924866 566.127075,551.945374 560.914490,550.155090 
	C558.150085,549.205566 555.009277,549.351929 551.936523,548.544312 
	C551.899841,540.725220 551.965149,533.365540 552.030457,526.005859 
z"/>
<path fill="#1D4070" opacity="1.000000" stroke="none" 
	d="
M401.442383,449.092468 
	C399.682251,447.007385 398.349213,444.981628 397.006195,442.614166 
	C410.730011,440.916260 424.559387,440.160187 438.164001,437.993134 
	C447.255280,436.544952 455.894653,436.326111 464.709473,439.793060 
	C465.112244,437.540100 465.004608,435.518860 465.843842,434.032104 
	C467.278625,431.490173 468.837189,428.248077 471.195709,427.178223 
	C474.728851,425.575531 478.704376,427.149567 480.678284,430.689514 
	C482.842438,434.570740 484.058105,438.970306 486.025024,442.978119 
	C486.657318,444.266479 488.362274,445.028381 490.003845,445.938843 
	C505.057709,445.294495 519.684143,444.742401 534.737000,444.092255 
	C542.619812,444.650208 550.243164,445.608856 550.796936,434.686432 
	C557.317688,436.190033 552.485901,440.786896 554.379883,443.694733 
	C557.286438,443.954803 561.491272,442.780365 562.060913,448.534149 
	C556.070312,448.937195 550.055603,449.445557 544.030334,449.728210 
	C524.259521,450.655518 504.485260,451.510651 484.710510,452.351044 
	C483.620667,452.397369 482.481110,452.178284 481.421082,451.881470 
	C471.208679,449.021881 461.160217,444.942749 450.756714,443.600098 
	C442.398224,442.521362 433.589142,444.535614 425.025818,445.560608 
	C417.274811,446.488312 409.585846,447.934326 401.442383,449.092468 
z"/>
<path fill="#122C53" opacity="1.000000" stroke="none" 
	d="
M552.038391,549.003662 
	C555.009277,549.351929 558.150085,549.205566 560.914490,550.155090 
	C566.127075,551.945374 571.375610,553.924866 576.139404,556.647644 
	C581.128845,559.499390 585.542908,563.350098 590.265625,566.683167 
	C591.168762,567.320618 592.337341,567.581787 593.756226,568.030457 
	C582.985168,577.379456 571.841248,586.714478 560.350159,595.991211 
	C558.265564,593.111755 556.649109,590.204956 554.738403,587.506592 
	C553.820740,586.210571 552.347229,585.308167 551.179260,583.550171 
	C551.411987,581.273438 551.725464,579.675720 551.747681,578.074097 
	C551.881531,568.384460 551.948853,558.693909 552.038391,549.003662 
z"/>
<path fill="#122749" opacity="1.000000" stroke="none" 
	d="
M353.967834,369.459045 
	C358.930878,368.006775 363.815247,367.009949 369.173676,366.459167 
	C370.053528,371.633759 370.459351,376.362213 370.823853,381.412323 
	C370.840912,382.160400 370.899261,382.586823 370.957581,383.013275 
	C372.948395,397.677948 374.939209,412.342621 377.059875,427.367798 
	C377.689087,430.471588 378.188385,433.214874 378.771912,436.420654 
	C373.274139,436.420654 367.901855,436.420654 362.139008,436.420654 
	C357.379456,414.624084 354.967560,392.355621 353.967834,369.459045 
z"/>
<path fill="#173764" opacity="1.000000" stroke="none" 
	d="
M628.033936,734.164795 
	C627.549988,736.523804 627.123352,738.465515 626.657593,740.585388 
	C620.777588,740.585388 615.006897,740.585388 608.565735,740.585388 
	C609.705750,734.364502 610.743958,728.377991 611.907837,722.416016 
	C614.234497,710.497070 616.731018,698.610107 618.920959,686.666626 
	C619.427246,683.905640 620.521362,683.130493 623.176086,683.237854 
	C627.955994,683.431213 632.749329,683.292480 638.035339,683.292480 
	C634.640442,700.517883 631.365906,717.132690 628.033936,734.164795 
z"/>
<path fill="#173764" opacity="1.000000" stroke="none" 
	d="
M401.089111,740.838379 
	C398.479523,740.836609 396.347015,740.836609 393.726074,740.836609 
	C397.518829,721.390381 401.205109,702.489990 404.907715,683.505981 
	C411.125946,683.505981 416.896759,683.505981 423.156403,683.505981 
	C419.509399,702.712341 415.921478,721.607422 412.269470,740.840088 
	C408.490448,740.840088 405.028320,740.840088 401.089111,740.838379 
z"/>
<path fill="#153664" opacity="1.000000" stroke="none" 
	d="
M474.740997,511.011261 
	C470.395142,511.449158 466.598999,510.758942 463.998291,506.642731 
	C463.426636,505.738037 461.763916,505.522644 460.368713,504.651947 
	C466.106903,498.225037 467.794434,491.032776 464.603760,483.202728 
	C461.494659,475.572845 455.320770,471.347534 447.103668,471.258209 
	C438.694244,471.166779 432.615448,475.438202 428.937378,483.068695 
	C428.545593,483.881500 427.716034,484.483246 426.863770,484.901428 
	C424.006622,483.375519 421.375244,482.131042 418.743866,480.886536 
	C424.194733,466.340973 439.178528,458.229095 453.887146,461.860840 
	C468.561493,465.484100 477.893524,479.210205 476.279663,494.510498 
	C476.116272,496.059540 473.840637,499.106659 478.584045,499.536804 
	C479.353302,501.628998 479.677917,503.276245 479.579407,505.014404 
	C477.795868,505.193237 476.435425,505.281128 475.092682,505.367889 
	C474.957489,507.537140 474.849243,509.274200 474.740997,511.011261 
z"/>
<path fill="#1D4070" opacity="1.000000" stroke="none" 
	d="
M655.608826,388.301178 
	C657.874207,388.603027 659.945068,389.241821 662.011475,389.894836 
	C664.091675,390.552185 666.170654,391.646454 668.243164,391.630646 
	C668.862610,391.625977 669.430542,388.523285 670.080872,386.862946 
	C670.305603,386.289093 670.708191,385.784912 671.380127,385.120789 
	C669.525513,402.702820 667.320435,420.412903 665.072083,438.470337 
	C658.487976,437.398193 653.343628,436.560486 648.006226,435.691345 
	C648.504822,433.058563 648.930908,430.808380 649.317749,428.128357 
	C651.323120,414.680450 653.367737,401.662384 655.608826,388.301178 
z"/>
<path fill="#153664" opacity="1.000000" stroke="none" 
	d="
M375.304535,290.129059 
	C372.541138,286.043427 369.777740,281.957794 367.021484,277.496765 
	C375.782745,273.211029 384.536835,269.300659 393.642639,265.349091 
	C396.390533,268.766113 398.474030,272.502991 401.252563,275.620392 
	C405.999817,280.946564 406.005768,282.819275 400.672577,287.283722 
	C399.410217,288.340424 398.820343,290.200439 397.548370,291.960693 
	C390.664093,285.445404 383.592834,284.167542 375.785248,290.046478 
	C375.669769,290.133453 375.466705,290.104126 375.304535,290.129059 
z"/>
<path fill="#122C53" opacity="1.000000" stroke="none" 
	d="
M418.436127,481.127991 
	C421.375244,482.131042 424.006622,483.375519 426.838379,485.341736 
	C425.911926,495.749725 430.514618,502.540283 438.049225,507.849030 
	C437.440125,509.182526 436.294250,510.523743 436.313324,511.848206 
	C436.403687,518.129089 432.458038,518.455627 427.379761,517.987732 
	C428.156952,516.887939 429.376953,515.796204 429.916748,515.313171 
	C426.295349,505.569489 418.348541,506.974304 410.380005,506.620087 
	C407.200287,504.573608 406.130798,502.893585 409.043182,500.304657 
	C410.103851,499.361786 410.375000,497.530731 411.006348,496.104919 
	C412.490387,496.181274 413.974426,496.257629 415.845062,496.694153 
	C416.434296,496.892517 416.636932,496.730713 416.839539,496.568909 
	C417.269165,491.502411 417.698792,486.435913 418.436127,481.127991 
z"/>
<path fill="#153868" opacity="1.000000" stroke="none" 
	d="
M621.572998,670.986938 
	C620.085205,665.973877 621.294983,662.009521 625.222473,659.246704 
	C629.485413,656.247864 634.288696,656.010742 638.912781,658.266846 
	C644.683044,661.082336 644.978882,669.369019 639.657776,673.758301 
	C634.347473,678.138672 625.941956,676.998779 621.572998,670.986938 
z"/>
<path fill="#173764" opacity="1.000000" stroke="none" 
	d="
M427.162476,670.972900 
	C422.137756,676.291870 416.591797,677.644836 411.243103,675.134338 
	C406.484802,672.900940 404.747894,668.342529 406.804535,663.485291 
	C409.219666,657.781372 416.725311,654.959595 422.955902,657.413025 
	C428.273163,659.506958 429.869904,664.306274 427.162476,670.972900 
z"/>
<path fill="#16335B" opacity="1.000000" stroke="none" 
	d="
M410.648956,495.970093 
	C410.375000,497.530731 410.103851,499.361786 409.043182,500.304657 
	C406.130798,502.893585 407.200287,504.573608 409.921082,506.550049 
	C400.888275,506.592896 391.772125,506.314514 382.656403,506.022705 
	C362.555115,505.379272 342.454071,504.729126 322.330750,502.925537 
	C345.578979,502.218506 368.827209,501.511475 392.538940,500.880859 
	C392.824036,502.067505 392.645630,503.177673 392.469604,504.273102 
	C400.396423,506.012939 400.612396,505.865723 405.001190,495.577881 
	C406.774048,495.420013 408.532806,495.627625 410.648956,495.970093 
z"/>
<path fill="#16335B" opacity="1.000000" stroke="none" 
	d="
M522.540161,499.082214 
	C523.004150,500.788452 523.005371,502.412537 522.544312,504.516418 
	C514.717468,504.938965 507.352966,504.881744 499.981079,504.463135 
	C499.649109,502.463348 499.324524,500.824921 498.999939,499.186523 
	C506.692444,499.124359 514.384949,499.062195 522.540161,499.082214 
z"/>
<path fill="#1D4070" opacity="1.000000" stroke="none" 
	d="
M672.202637,378.644104 
	C671.012512,377.795288 669.876099,376.630310 668.944031,375.320038 
	C667.349426,373.078400 665.882629,370.745819 664.362122,368.451477 
	C666.935303,366.968872 669.508484,365.486267 672.463745,364.002075 
	C672.680115,368.754517 672.514282,373.508545 672.202637,378.644104 
z"/>
<path fill="#C62B3B" opacity="1.000000" stroke="none" 
	d="
M541.132324,420.578430 
	C538.273376,420.250153 534.707214,420.348633 535.003052,415.390533 
	C536.382629,413.593048 537.691467,412.107330 539.158875,410.799377 
	C541.716736,408.519409 544.404785,406.580109 547.927612,409.904877 
	C546.078918,411.859924 543.737427,413.224396 542.148560,415.195526 
	C541.184021,416.392090 541.382874,418.526367 541.132324,420.578430 
z"/>
<path fill="#C62B3B" opacity="1.000000" stroke="none" 
	d="
M554.349243,406.862030 
	C555.127869,404.403168 556.258057,401.994904 557.388245,399.586639 
	C558.230896,399.785828 559.073547,399.985016 559.916199,400.184204 
	C559.916199,403.344299 559.916199,406.504395 559.877136,410.094391 
	C558.125671,409.320404 556.413269,408.116516 554.349243,406.862030 
z"/>
<path fill="#C22534" opacity="1.000000" stroke="none" 
	d="
M413.515442,518.308289 
	C412.126556,516.860901 411.066956,515.282715 409.968750,513.346313 
	C413.120697,512.988220 416.311249,512.988220 420.483490,512.988220 
	C417.811005,515.077209 415.827881,516.627319 413.515442,518.308289 
z"/>
<path fill="#153868" opacity="1.000000" stroke="none" 
	d="
M498.589661,499.098145 
	C499.324524,500.824921 499.649109,502.463348 499.548645,504.529266 
	C497.083801,504.924286 495.044006,504.891815 493.012482,504.495605 
	C493.347229,502.483887 493.673706,500.835907 494.000183,499.187927 
	C495.393250,499.128540 496.786316,499.069153 498.589661,499.098145 
z"/>
<path fill="#153664" opacity="1.000000" stroke="none" 
	d="
M482.999786,499.208862 
	C484.718597,499.142426 486.437439,499.076019 488.579102,499.507507 
	C489.001740,501.646790 489.001526,503.288177 488.581360,505.030640 
	C486.440460,505.068054 484.719543,505.004395 482.999390,504.531006 
	C483.000000,502.483795 482.999908,500.846344 482.999786,499.208862 
z"/>
<path fill="#16335B" opacity="1.000000" stroke="none" 
	d="
M489.001312,504.929565 
	C489.001526,503.288177 489.001740,501.646790 489.001587,499.595673 
	C490.393372,499.131287 491.785461,499.076691 493.588867,499.104980 
	C493.673706,500.835907 493.347229,502.483887 492.613159,504.580719 
	C491.673401,505.138184 491.141205,505.246765 490.335480,505.307068 
	C489.708405,505.149048 489.354858,505.039307 489.001312,504.929565 
z"/>
<path fill="#16335B" opacity="1.000000" stroke="none" 
	d="
M482.604095,499.130127 
	C482.999908,500.846344 483.000000,502.483795 482.629517,504.617554 
	C481.506775,505.050354 480.754639,504.986938 480.002533,504.923492 
	C479.677917,503.276245 479.353302,501.628998 479.014954,499.620300 
	C480.070251,499.189667 481.139343,499.120514 482.604095,499.130127 
z"/>
<path fill="#1D4174" opacity="1.000000" stroke="none" 
	d="
M284.688995,463.879303 
	C285.023163,464.171051 285.017639,464.348389 285.000854,464.658478 
	C283.518188,464.791382 282.042450,464.791382 280.566681,464.791382 
	C280.532898,464.596497 280.499115,464.401581 280.465332,464.206696 
	C281.761444,464.059479 283.057556,463.912262 284.688995,463.879303 
z"/>
<path fill="#1D4174" opacity="1.000000" stroke="none" 
	d="
M630.753113,461.396240 
	C630.444275,461.761871 629.867004,462.070312 629.140747,462.175171 
	C629.489380,461.760742 629.987061,461.549896 630.753113,461.396240 
z"/>
<path fill="#16335B" opacity="1.000000" stroke="none" 
	d="
M416.643188,496.538452 
	C416.636932,496.730713 416.434296,496.892517 416.166443,496.879211 
	C416.101166,496.704071 416.446838,496.507996 416.643188,496.538452 
z"/>
<path fill="#F6F7F8" opacity="1.000000" stroke="none" 
	d="
M291.462891,726.454346 
	C289.878479,726.377380 288.738129,726.303650 287.170135,726.202332 
	C288.186493,720.645264 289.161957,715.311951 290.162079,709.843689 
	C297.646545,709.843689 304.932129,709.643005 312.199249,709.922180 
	C316.284454,710.079041 319.698395,711.821350 320.155975,716.612671 
	C320.574646,720.996704 318.085052,724.843567 313.318756,725.651489 
	C308.436096,726.479126 303.384796,726.345459 298.403748,726.543640 
	C296.242737,726.629700 294.072815,726.493164 291.462891,726.454346 
z"/>
<path fill="#FAFAFA" opacity="1.000000" stroke="none" 
	d="
M293.732452,695.802795 
	C294.231537,690.543457 295.119537,685.487183 296.070526,680.072327 
	C302.896332,680.072327 309.677338,679.698425 316.370941,680.298767 
	C318.395508,680.480347 321.582092,683.235474 321.742737,685.034424 
	C321.984314,687.740417 320.740143,691.371582 318.807404,693.253357 
	C316.928986,695.082092 313.426392,695.754150 310.568054,695.955444 
	C305.111725,696.339783 299.606384,696.028503 293.732452,695.802795 
z"/>
<path fill="#FAFAFA" opacity="1.000000" stroke="none" 
	d="
M375.074402,290.427979 
	C375.466705,290.104126 375.669769,290.133453 375.785248,290.046478 
	C383.592834,284.167542 390.664093,285.445404 397.508270,292.358704 
	C423.234192,310.892639 448.627411,329.298370 474.961334,348.385956 
	C474.961334,325.201843 474.961334,303.066284 474.878479,280.469086 
	C474.795593,273.962311 474.795593,267.917206 474.795593,261.444580 
	C480.179016,260.959717 485.032532,260.522614 490.300964,260.361389 
	C490.715851,260.637329 490.923401,261.007355 490.833466,261.428375 
	C490.800934,263.563629 490.858368,265.277893 490.819855,267.453186 
	C490.773621,282.271667 490.823303,296.629089 490.765839,311.405884 
	C490.441986,316.788666 490.023712,321.753021 490.047943,326.715271 
	C490.110352,339.497345 490.355316,352.278656 490.555267,365.059845 
	C490.633148,370.038361 490.785767,375.015747 490.904327,379.993652 
	C489.199524,380.347748 487.495819,381.003754 485.789703,381.010101 
	C464.498230,381.089661 443.206421,381.074951 421.453003,381.174133 
	C404.973389,381.204041 388.955475,381.144226 372.194641,381.080322 
	C371.256195,381.081024 371.060669,381.085846 370.865112,381.090698 
	C370.459351,376.362213 370.053528,371.633759 369.557007,366.446533 
	C372.683807,365.730652 375.901276,365.473450 380.008240,365.220459 
	C384.264771,365.163239 387.631805,365.101837 391.418945,365.142548 
	C393.560028,365.174377 395.281097,365.104065 397.460144,365.140656 
	C404.758209,365.247528 411.598328,365.247528 418.438416,365.247528 
	C418.504150,364.900513 418.569855,364.553467 418.635590,364.206451 
	C407.157532,356.107849 395.679504,348.009247 384.201477,339.910645 
	C381.480072,337.831390 378.981628,335.324127 375.989105,333.765411 
	C370.405823,330.857208 368.292847,326.697876 370.240112,320.343018 
	C389.013031,333.312500 407.755493,346.038147 425.485199,360.045624 
	C435.853668,368.237244 446.628479,363.599121 457.163696,365.150177 
	C457.288055,364.706482 457.412384,364.262787 457.536743,363.819061 
	C428.817261,343.107239 400.097778,322.395386 371.378296,301.683533 
	C372.333679,297.968079 370.004059,293.213440 375.074402,290.427979 
z"/>
<path fill="#FAFAFA" opacity="1.000000" stroke="none" 
	d="
M656.252808,310.588684 
	C656.589966,315.312622 656.470276,319.674255 657.116150,323.919403 
	C657.745422,328.056183 655.948242,330.210327 652.795471,332.416565 
	C639.045044,342.038696 625.453918,351.888641 611.812805,361.666809 
	C610.654602,362.497040 609.554443,363.408325 607.314697,365.144287 
	C624.589417,365.144287 640.569519,365.144287 657.036987,365.144287 
	C656.669739,370.551514 656.346008,375.317535 655.941345,380.516205 
	C617.210876,380.981140 578.561279,381.035065 539.912048,380.953918 
	C538.589661,380.951141 537.270081,379.593536 535.944336,377.972778 
	C535.890198,361.389526 535.840942,345.700897 535.879761,329.550110 
	C535.897461,321.412842 535.827148,313.737732 535.852173,305.663055 
	C535.940247,290.225891 535.932800,275.188232 535.925415,260.150604 
	C541.020386,260.508087 546.115295,260.865570 551.614014,261.251404 
	C551.614014,290.317017 551.614014,318.972900 551.614014,348.419769 
	C561.947571,340.986084 571.644287,334.075317 581.272461,327.070435 
	C599.696716,313.666016 618.179565,300.338318 636.414612,286.680389 
	C640.960449,283.275543 643.269775,287.782043 646.610840,288.840271 
	C629.612976,301.849030 612.660950,314.346436 595.385925,326.934479 
	C581.838379,336.492126 568.715027,346.106018 555.325745,355.333893 
	C551.460999,357.997437 550.724182,360.843292 552.132996,365.019226 
	C555.080994,365.019226 557.930969,364.743195 560.707581,365.077148 
	C566.351990,365.756104 570.796692,363.855835 575.234497,360.368958 
	C585.619141,352.209595 596.376587,344.524719 607.280762,336.525146 
	C623.404297,324.995178 639.230164,313.587799 655.055969,302.180420 
	C655.414307,304.845398 655.772644,307.510376 656.252808,310.588684 
z"/>
<path fill="#C23F52" opacity="1.000000" stroke="none" 
	d="
M535.493652,260.053436 
	C535.932800,275.188232 535.940247,290.225891 535.398376,305.639221 
	C532.638367,305.125885 530.242737,304.525970 528.269897,303.264771 
	C526.376831,302.054688 524.777161,300.282074 523.300232,298.542969 
	C517.426941,291.627319 510.914948,285.098328 506.075043,277.510468 
	C502.232117,271.485657 497.798584,267.878906 490.915771,266.992126 
	C490.858368,265.277893 490.800934,263.563629 491.045166,261.327209 
	C491.621704,260.636444 491.828247,260.406464 491.966400,260.115082 
	C506.331573,260.062134 520.696716,260.009216 535.493652,260.053436 
z"/>
<path fill="#C63345" opacity="1.000000" stroke="none" 
	d="
M655.076050,301.723816 
	C639.230164,313.587799 623.404297,324.995178 607.215820,336.206970 
	C603.138428,332.955566 599.423645,329.899719 595.708923,326.843872 
	C612.660950,314.346436 629.612976,301.849030 646.819275,289.118439 
	C654.880310,291.226654 654.880310,291.226654 655.076050,301.723816 
z"/>
<path fill="#C63345" opacity="1.000000" stroke="none" 
	d="
M491.649109,260.092926 
	C491.828247,260.406464 491.621704,260.636444 491.135101,260.906189 
	C490.923401,261.007355 490.715851,260.637329 490.713837,260.425232 
	C490.918488,260.165710 491.125153,260.118225 491.649109,260.092926 
z"/>
<path fill="#AF1928" opacity="1.000000" stroke="none" 
	d="
M533.036133,594.104431 
	C526.909790,597.612122 520.851685,601.251038 514.593933,604.506165 
	C513.472412,605.089539 511.317780,604.471130 509.996246,603.752686 
	C503.619812,600.286133 497.365265,596.595459 490.864441,592.216614 
	C490.746521,576.965454 490.831635,562.481995 491.352905,547.998413 
	C498.909943,549.805542 506.009766,551.704468 513.167847,553.349670 
	C514.776062,553.719299 516.734436,553.596863 518.280151,553.023315 
	C524.180237,550.834229 529.977600,548.368164 535.894897,546.467529 
	C535.898926,561.952087 535.821411,576.974731 535.408264,592.007080 
	C534.393799,592.712708 533.714966,593.408569 533.036133,594.104431 
z"/>
<path fill="#FAFAFA" opacity="1.000000" stroke="none" 
	d="
M535.743896,591.997314 
	C535.821411,576.974731 535.898926,561.952087 535.980957,546.005493 
	C536.002869,531.815857 536.020264,518.550232 536.037598,505.284668 
	C541.026062,505.284668 546.014526,505.284668 551.836304,505.284668 
	C551.836304,511.916809 551.836304,518.500854 551.933350,525.545410 
	C551.965149,533.365540 551.899841,540.725220 551.936523,548.544312 
	C551.948853,558.693909 551.881531,568.384460 551.747681,578.074097 
	C551.725464,579.675720 551.411987,581.273438 551.033569,583.212524 
	C546.117981,586.586853 541.401917,589.621521 536.339478,592.512695 
	C535.993042,592.369263 535.743896,591.997314 535.743896,591.997314 
z"/>
<path fill="#F6F7F8" opacity="1.000000" stroke="none" 
	d="
M490.916748,547.998535 
	C490.831635,562.481995 490.746521,576.965454 490.643433,591.963013 
	C485.998596,589.595520 481.224030,586.915405 476.841034,583.701233 
	C475.634766,582.816711 475.110443,580.340881 475.098389,578.589539 
	C474.945770,556.372009 474.943878,534.153442 474.822327,511.473206 
	C474.849243,509.274200 474.957489,507.537140 475.092682,505.367889 
	C476.435425,505.281128 477.795868,505.193237 479.579407,505.014404 
	C480.754639,504.986938 481.506775,505.050354 482.628754,505.027252 
	C484.719543,505.004395 486.440460,505.068054 488.581360,505.030640 
	C489.354858,505.039307 489.708405,505.149048 490.342682,505.750793 
	C490.721191,520.161377 490.818970,534.079956 490.916748,547.998535 
z"/>
<path fill="#F2F3F5" opacity="1.000000" stroke="none" 
	d="
M438.431549,507.904602 
	C430.514618,502.540283 425.911926,495.749725 427.064178,485.623169 
	C427.716034,484.483246 428.545593,483.881500 428.937378,483.068695 
	C432.615448,475.438202 438.694244,471.166779 447.103668,471.258209 
	C455.320770,471.347534 461.494659,475.572845 464.603760,483.202728 
	C467.794434,491.032776 466.106903,498.225037 459.989502,504.627930 
	C453.356232,509.581299 446.442535,511.261475 438.431549,507.904602 
M457.712463,495.882629 
	C460.335083,488.260376 457.976227,481.810791 451.590759,479.144562 
	C445.756775,476.708618 438.959137,479.047058 436.093658,484.475739 
	C433.097443,490.152039 435.019470,497.404266 440.400696,500.727112 
	C446.206635,504.312195 452.767975,502.684174 457.712463,495.882629 
z"/>
<path fill="#B61D2D" opacity="1.000000" stroke="none" 
	d="
M535.408325,592.007080 
	C535.743896,591.997314 535.993042,592.369263 536.013367,592.592041 
	C535.256104,593.210815 534.478577,593.606873 533.368530,594.053711 
	C533.714966,593.408569 534.393799,592.712708 535.408325,592.007080 
z"/>
<path fill="#C62B3B" opacity="1.000000" stroke="none" 
	d="
M535.791626,330.012268 
	C535.840942,345.700897 535.890198,361.389526 535.859924,377.541199 
	C531.395386,379.751953 526.789307,381.103302 522.701660,383.383911 
	C519.877686,384.959534 521.585083,387.295288 523.453979,388.927490 
	C524.932007,390.218262 526.484070,391.424194 528.003296,392.667816 
	C527.689453,393.181519 527.375671,393.695190 527.061890,394.208862 
	C525.113464,393.365265 522.264221,393.056274 521.386536,391.577271 
	C518.807434,387.231598 516.657410,388.738892 514.076416,391.640503 
	C507.127441,391.182465 500.972382,389.048401 496.428589,383.343994 
	C495.276642,381.897797 493.248474,381.149597 491.263611,380.037170 
	C490.785767,375.015747 490.633148,370.038361 490.555267,365.059845 
	C490.355316,352.278656 490.110352,339.497345 490.047943,326.715271 
	C490.023712,321.753021 490.441986,316.788666 491.110962,311.463501 
	C492.767303,312.154297 493.971405,313.206787 495.175537,314.259308 
	C498.526520,314.178467 501.924591,314.720917 504.722473,316.316071 
	C510.574280,319.652466 516.029663,323.676270 521.801453,327.163513 
	C526.056152,329.734131 530.619507,331.575500 535.791626,330.012268 
z"/>
<path fill="#C62B3B" opacity="1.000000" stroke="none" 
	d="
M536.997559,393.998779 
	C537.569885,391.640442 537.394531,388.362396 538.893494,387.143738 
	C541.033386,385.403839 544.588501,384.085419 547.199951,384.539276 
	C551.642639,385.311401 551.322937,389.693115 551.732239,394.003601 
	C546.892578,394.003601 542.348877,394.003601 537.402588,394.001801 
	C537.000000,394.000000 536.997559,393.998779 536.997559,393.998779 
z"/>
<path fill="#C62B3B" opacity="1.000000" stroke="none" 
	d="
M537.001221,394.000610 
	C535.365295,396.393250 533.728149,398.785248 532.091003,401.177277 
	C531.584900,401.030060 531.078796,400.882843 530.572632,400.735657 
	C530.061035,398.829254 529.549500,396.922852 528.765015,393.999512 
	C531.686951,393.999512 533.903503,393.999512 536.558777,393.999146 
	C536.997559,393.998779 537.000000,394.000000 537.001221,394.000610 
z"/>
<path fill="#C62B3B" opacity="1.000000" stroke="none" 
	d="
M516.997559,395.997559 
	C517.522217,395.069702 518.046814,394.141846 518.571472,393.213989 
	C518.953125,393.515198 519.334839,393.816376 519.716492,394.117584 
	C519.024048,394.719177 518.331604,395.320801 517.319580,395.961182 
	C517.000000,396.000000 516.997559,395.997559 516.997559,395.997559 
z"/>
<path fill="#C62B3B" opacity="1.000000" stroke="none" 
	d="
M560.751587,386.785950 
	C560.220215,387.013367 559.750305,386.963348 559.280457,386.913361 
	C559.388672,386.497955 559.496948,386.082550 559.605164,385.667145 
	C560.007812,385.947601 560.410522,386.228058 560.751587,386.785950 
z"/>
<path fill="#C62B3B" opacity="1.000000" stroke="none" 
	d="
M517.000000,397.666077 
	C516.368347,397.541443 515.736694,397.084076 515.053711,396.312744 
	C515.445801,395.998840 515.889160,395.998932 516.665039,395.998291 
	C516.997559,395.997559 517.000000,396.000000 517.001221,396.001221 
	C517.001587,396.446075 517.000793,396.889679 517.000000,397.666077 
z"/>
<path fill="#B61D2D" opacity="1.000000" stroke="none" 
	d="
M491.352905,547.998413 
	C490.818970,534.079956 490.721191,520.161377 490.616211,505.799072 
	C491.141205,505.246765 491.673401,505.138184 492.604919,504.944458 
	C495.044006,504.891815 497.083801,504.924286 499.556030,504.890656 
	C507.352966,504.881744 514.717468,504.938965 522.546997,504.922394 
	C527.050354,504.933685 531.088623,505.018799 535.582275,505.194275 
	C536.020264,518.550232 536.002869,531.815857 535.899414,545.543457 
	C529.977600,548.368164 524.180237,550.834229 518.280151,553.023315 
	C516.734436,553.596863 514.776062,553.719299 513.167847,553.349670 
	C506.009766,551.704468 498.909943,549.805542 491.352905,547.998413 
z"/>
<path fill="#F2F3F5" opacity="1.000000" stroke="none" 
	d="
M639.448730,471.389160 
	C655.435425,477.426178 659.458801,491.567688 648.999268,504.262634 
	C644.263367,507.679108 639.486267,510.207153 633.653625,509.568726 
	C623.136108,508.417450 615.197205,499.108032 616.100159,488.967010 
	C617.105408,477.677338 626.856689,470.184418 639.448730,471.389160 
M645.778381,497.089325 
	C648.523376,492.293396 648.556702,487.506317 645.230530,483.046753 
	C642.412537,479.268402 638.352295,477.867035 633.741089,478.467285 
	C628.319519,479.173004 624.404663,483.156799 623.463135,488.596466 
	C622.562805,493.798096 625.316650,499.049835 630.163269,501.374054 
	C635.557434,503.960846 640.501099,502.761627 645.778381,497.089325 
z"/>
<path fill="#F6F7F8" opacity="1.000000" stroke="none" 
	d="
M591.532471,511.449310 
	C589.051270,509.555756 586.845581,507.889435 584.639832,506.223114 
	C584.734680,505.874420 584.829529,505.525726 584.924377,505.177032 
	C593.113098,505.177032 601.372192,504.569427 609.452209,505.506470 
	C612.281494,505.834595 614.670105,509.962494 617.471558,512.550720 
	C614.826233,516.805176 612.329468,520.820679 609.759888,524.953247 
	C603.540100,520.353271 597.674011,516.014893 591.532471,511.449310 
z"/>
<path fill="#C62B3B" opacity="1.000000" stroke="none" 
	d="
M370.823853,381.412323 
	C371.060669,381.085846 371.256195,381.081024 371.732941,381.159515 
	C371.813446,381.733002 371.612732,382.223206 371.184814,382.863342 
	C370.899261,382.586823 370.840912,382.160400 370.823853,381.412323 
z"/>
<path fill="#F6F7F8" opacity="1.000000" stroke="none" 
	d="
M727.240967,707.206299 
	C726.099854,706.602173 724.786011,705.910522 724.854614,705.407532 
	C725.605469,699.903137 733.031189,695.134766 739.911865,695.567932 
	C746.615051,695.989990 749.757385,699.424561 749.980164,707.206360 
	C742.554810,707.206360 735.132568,707.206360 727.240967,707.206299 
z"/>
<path fill="#F2F3F5" opacity="1.000000" stroke="none" 
	d="
M692.030762,463.225281 
	C693.085205,466.161865 693.913696,468.786652 695.028564,472.318512 
	C687.867737,469.499054 685.330994,465.027527 686.157715,457.803955 
	C688.240906,459.688812 690.022827,461.301147 692.030762,463.225281 
z"/>
<path fill="#F6F7F8" opacity="1.000000" stroke="none" 
	d="
M488.749634,716.095276 
	C483.177551,703.930664 484.391754,692.243408 492.646057,681.958008 
	C500.972900,671.582214 512.198364,666.900879 525.470459,670.234436 
	C538.433777,673.490356 546.910400,681.880371 549.954834,695.135010 
	C552.156677,704.721191 550.352539,713.618164 543.894409,721.768250 
	C541.266296,721.498169 539.345093,721.118774 537.596497,720.428528 
	C541.274597,715.691040 543.982422,710.946777 544.124023,703.900879 
	C538.806335,704.282715 533.884766,704.636047 528.579590,704.990479 
	C527.084290,704.562561 525.972656,704.133728 524.869873,703.319702 
	C524.191650,700.434937 523.504456,697.935181 522.981628,695.048462 
	C523.481323,693.599182 523.816650,692.537048 524.490601,691.616272 
	C530.571411,695.461914 536.919434,697.007751 543.816345,697.752197 
	C541.414185,684.548157 531.164246,675.889404 518.537903,675.805603 
	C505.589874,675.719666 494.913025,684.390137 492.357422,698.433167 
	C499.976013,695.740601 506.864410,693.306091 514.045166,691.107361 
	C514.584717,692.297791 514.831970,693.252563 514.878479,694.479858 
	C513.560181,697.637634 512.442627,700.522766 511.144897,703.761841 
	C510.179565,704.793884 509.394409,705.471985 508.315613,705.917847 
	C502.778778,705.035522 497.535614,704.385315 490.890503,703.561340 
	C492.695526,708.846802 493.886169,712.333374 494.844116,716.083496 
	C492.657471,716.263184 490.703552,716.179260 488.749634,716.095276 
z"/>
<path fill="#F2F3F5" opacity="1.000000" stroke="none" 
	d="
M537.423828,720.739380 
	C539.345093,721.118774 541.266296,721.498169 543.598145,721.940369 
	C530.213196,741.829590 500.538605,739.030396 488.804138,716.448120 
	C490.703552,716.179260 492.657471,716.263184 495.124390,716.276001 
	C500.062500,723.047791 506.121735,727.234619 514.883362,728.588867 
	C513.743958,720.223389 515.427124,712.042297 508.609253,706.150024 
	C509.394409,705.471985 510.179565,704.793884 511.386749,704.032410 
	C516.314148,709.756165 520.074890,709.685791 524.860962,703.704834 
	C525.972656,704.133728 527.084290,704.562561 528.545654,705.336060 
	C521.827942,711.740601 522.085632,719.840332 522.246948,728.207642 
	C528.676208,727.800049 533.161377,724.494934 537.423828,720.739380 
z"/>
<path fill="#C22B3A" opacity="1.000000" stroke="none" 
	d="
M371.250977,302.124176 
	C400.097778,322.395386 428.817261,343.107239 457.536743,363.819061 
	C457.412384,364.262787 457.288055,364.706482 457.163696,365.150177 
	C446.628479,363.599121 435.853668,368.237244 425.485199,360.045624 
	C407.755493,346.038147 389.013031,333.312500 370.370850,319.936768 
	C370.405090,314.071594 370.764374,308.318207 371.250977,302.124176 
z"/>
<path fill="#153664" opacity="1.000000" stroke="none" 
	d="
M390.998871,365.040436 
	C387.631805,365.101837 384.264771,365.163239 380.449585,365.120819 
	C379.715546,363.253693 379.934937,361.169556 379.054810,359.783569 
	C375.552124,354.267487 376.892181,349.509216 380.608856,344.836212 
	C381.733887,343.421692 382.625641,341.821625 383.912872,340.108582 
	C395.679504,348.009247 407.157532,356.107849 418.635590,364.206451 
	C418.569855,364.553467 418.504150,364.900513 418.438416,365.247528 
	C411.598328,365.247528 404.758209,365.247528 397.408630,364.780640 
	C394.448456,360.626862 392.480682,360.860626 390.998871,365.040436 
z"/>
<path fill="#FDFEFE" opacity="1.000000" stroke="none" 
	d="
M375.266968,688.397339 
	C375.077942,688.488770 374.634460,688.276123 374.328918,687.790588 
	C374.648743,687.709534 374.830627,687.901428 375.266968,688.397339 
z"/>
<path fill="#C63345" opacity="1.000000" stroke="none" 
	d="
M535.879761,329.550110 
	C530.619507,331.575500 526.056152,329.734131 521.801453,327.163513 
	C516.029663,323.676270 510.574280,319.652466 504.722473,316.316071 
	C501.924591,314.720917 498.526520,314.178467 495.175537,314.259308 
	C493.971405,313.206787 492.767303,312.154297 491.218079,311.044159 
	C490.823303,296.629089 490.773621,282.271667 490.819855,267.453186 
	C497.798584,267.878906 502.232117,271.485657 506.075043,277.510468 
	C510.914948,285.098328 517.426941,291.627319 523.300232,298.542969 
	C524.777161,300.282074 526.376831,302.054688 528.269897,303.264771 
	C530.242737,304.525970 532.638367,305.125885 535.302979,306.038757 
	C535.827148,313.737732 535.897461,321.412842 535.879761,329.550110 
z"/>
<path fill="#16335B" opacity="1.000000" stroke="none" 
	d="
M391.418945,365.142548 
	C392.480682,360.860626 394.448456,360.626862 396.950623,364.673767 
	C395.281097,365.104065 393.560028,365.174377 391.418945,365.142548 
z"/>
<path fill="#C62B3B" opacity="1.000000" stroke="none" 
	d="
M595.385925,326.934509 
	C599.423645,329.899719 603.138428,332.955566 606.918091,336.329590 
	C596.376587,344.524719 585.619141,352.209595 575.234497,360.368958 
	C570.796692,363.855835 566.351990,365.756104 560.707581,365.077148 
	C557.930969,364.743195 555.080994,365.019226 552.132996,365.019226 
	C550.724182,360.843292 551.460999,357.997437 555.325745,355.333893 
	C568.715027,346.106018 581.838379,336.492126 595.385925,326.934509 
z"/>
<path fill="#16335B" opacity="1.000000" stroke="none" 
	d="
M457.505310,496.208557 
	C452.767975,502.684174 446.206635,504.312195 440.400696,500.727112 
	C435.019470,497.404266 433.097443,490.152039 436.093658,484.475739 
	C438.959137,479.047058 445.756775,476.708618 451.590759,479.144562 
	C457.976227,481.810791 460.335083,488.260376 457.505310,496.208557 
z"/>
<path fill="#1D4070" opacity="1.000000" stroke="none" 
	d="
M645.557007,497.391541 
	C640.501099,502.761627 635.557434,503.960846 630.163269,501.374054 
	C625.316650,499.049835 622.562805,493.798096 623.463135,488.596466 
	C624.404663,483.156799 628.319519,479.173004 633.741089,478.467285 
	C638.352295,477.867035 642.412537,479.268402 645.230530,483.046753 
	C648.556702,487.506317 648.523376,492.293396 645.557007,497.391541 
z"/>
<path fill="#1C3A64" opacity="1.000000" stroke="none" 
	d="
M513.752808,690.871643 
	C506.864410,693.306091 499.976013,695.740601 492.357422,698.433167 
	C494.913025,684.390137 505.589874,675.719666 518.537903,675.805603 
	C531.164246,675.889404 541.414185,684.548157 543.816345,697.752197 
	C536.919434,697.007751 530.571411,695.461914 524.210083,691.372864 
	C520.311523,690.949280 517.032166,690.910461 513.752808,690.871643 
z"/>
<path fill="#1C3A64" opacity="1.000000" stroke="none" 
	d="
M508.315582,705.917847 
	C515.427124,712.042297 513.743958,720.223389 514.883362,728.588867 
	C506.121735,727.234619 500.062500,723.047791 495.357117,716.012390 
	C493.886169,712.333374 492.695526,708.846802 490.890503,703.561340 
	C497.535614,704.385315 502.778778,705.035522 508.315582,705.917847 
z"/>
<path fill="#1C3A64" opacity="1.000000" stroke="none" 
	d="
M537.596497,720.428589 
	C533.161377,724.494934 528.676208,727.800049 522.246948,728.207642 
	C522.085632,719.840332 521.827942,711.740601 528.929321,705.335022 
	C533.884766,704.636047 538.806335,704.282715 544.124023,703.900879 
	C543.982422,710.946777 541.274597,715.691040 537.596497,720.428589 
z"/>
<path fill="#1C3A64" opacity="1.000000" stroke="none" 
	d="
M524.869873,703.319702 
	C520.074890,709.685791 516.314148,709.756165 511.566956,703.678467 
	C512.442627,700.522766 513.560181,697.637634 515.285400,694.432495 
	C518.201111,694.553467 520.509216,694.994446 522.817261,695.435486 
	C523.504456,697.935181 524.191650,700.434937 524.869873,703.319702 
z"/>
<path fill="#F2F3F5" opacity="1.000000" stroke="none" 
	d="
M522.981628,695.048462 
	C520.509216,694.994446 518.201111,694.553467 515.486145,694.159851 
	C514.831970,693.252563 514.584717,692.297791 514.045166,691.107361 
	C517.032166,690.910461 520.311523,690.949280 523.871460,691.231445 
	C523.816650,692.537048 523.481323,693.599182 522.981628,695.048462 
z"/>
</svg>